<?xml version="1.0" standalone="no"?>
<!DOCTYPE svg PUBLIC "-//W3C//DTD SVG 20010904//EN"
 "http://www.w3.org/TR/2001/REC-SVG-20010904/DTD/svg10.dtd">
<svg version="1.0" xmlns="http://www.w3.org/2000/svg"
 width="1029.000000pt" height="1029.000000pt" viewBox="0 0 1029.000000 1029.000000"
 preserveAspectRatio="xMidYMid meet">
<g transform="translate(0.000000,1029.000000) scale(0.100000,-0.100000)"
fill="#000000" stroke="none">
<path d="M6210 9467 c0 -14 -4 -15 -26 -7 -34 13 -37 13 -30 -7 6 -17 5 -17
-8 0 -10 14 -15 15 -19 5 -4 -10 -6 -10 -6 1 -1 11 -5 10 -17 -5 -8 -10 -13
-14 -10 -8 3 7 -3 14 -13 17 -14 3 -18 1 -14 -9 3 -9 -2 -14 -17 -14 -16 0
-20 -4 -16 -15 5 -14 -5 -20 -27 -16 -5 1 -6 -3 -2 -9 3 -6 12 -8 18 -4 7 3 4
-1 -7 -10 -10 -8 -15 -19 -12 -25 4 -5 1 -13 -5 -17 -8 -5 -9 -3 -4 6 6 9 4
11 -4 6 -7 -5 -10 -14 -7 -21 2 -7 -4 -21 -15 -31 -15 -13 -16 -19 -7 -26 10
-6 8 -8 -4 -8 -12 0 -15 -5 -11 -17 4 -10 2 -14 -4 -10 -9 6 -41 -69 -36 -85
2 -4 -6 -12 -18 -18 -17 -10 -18 -14 -7 -28 10 -12 10 -14 1 -8 -8 4 -13 1
-13 -8 0 -9 -5 -16 -11 -16 -5 0 -7 -4 -4 -10 3 -5 2 -10 -3 -10 -6 0 -13 -7
-16 -16 -4 -10 -2 -13 7 -9 6 4 4 0 -5 -8 -10 -8 -15 -17 -11 -20 3 -4 0 -7
-7 -7 -7 0 -11 -3 -7 -6 3 -4 -1 -13 -9 -21 -11 -12 -12 -18 -3 -29 10 -12 9
-13 -5 -8 -15 6 -22 -10 -17 -39 1 -5 -3 -6 -8 -3 -5 4 -12 2 -16 -4 -3 -5 0
-10 7 -11 7 0 4 -4 -7 -9 -12 -5 -14 -9 -6 -9 11 -1 10 -5 -5 -17 -10 -8 -14
-13 -8 -10 6 3 11 -1 11 -8 0 -7 -7 -13 -16 -12 -10 1 -15 -6 -13 -16 4 -26
-17 -60 -31 -51 -7 4 -7 0 2 -10 10 -13 10 -17 1 -17 -7 0 -10 -7 -6 -16 3 -8
2 -12 -4 -9 -6 3 -10 1 -10 -5 0 -6 -5 -8 -11 -4 -8 5 -8 1 0 -14 13 -24 15
-43 2 -24 -6 10 -10 7 -15 -14 -4 -15 -18 -36 -32 -47 -20 -15 -22 -22 -13
-33 9 -11 9 -14 -1 -14 -7 0 -10 -7 -6 -16 4 -10 2 -13 -6 -8 -8 5 -9 2 -5
-10 5 -11 3 -15 -5 -10 -8 5 -9 2 -5 -10 4 -9 3 -14 -2 -11 -5 3 -12 1 -16 -5
-3 -5 0 -10 7 -10 10 0 9 -3 -2 -9 -8 -6 -18 -7 -24 -4 -5 3 -6 1 -2 -5 9 -14
-4 -63 -15 -57 -4 3 -6 -3 -4 -14 2 -11 -4 -26 -13 -33 -16 -12 -16 -11 -2 7
14 19 14 19 -3 6 -13 -10 -15 -17 -6 -27 9 -11 8 -14 0 -14 -7 0 -9 -5 -5 -12
5 -7 2 -9 -8 -6 -11 5 -15 -1 -15 -24 0 -18 -7 -34 -16 -40 -9 -5 -17 -17 -17
-28 0 -10 -7 -25 -15 -34 -9 -9 -11 -17 -5 -21 5 -3 10 -12 10 -18 0 -7 -4 -6
-10 3 -9 14 -14 7 -11 -13 1 -4 -6 -10 -14 -13 -8 -4 -15 -10 -15 -16 0 -5 5
-6 11 -3 6 4 5 -2 -3 -14 -7 -12 -19 -19 -28 -16 -9 3 -7 -1 4 -10 19 -14 19
-15 2 -15 -16 0 -17 -2 -5 -17 10 -11 10 -14 2 -9 -8 4 -13 1 -13 -9 0 -10 -5
-13 -12 -9 -8 5 -9 0 -5 -15 3 -15 -1 -26 -16 -36 -12 -8 -16 -15 -9 -15 8 0
5 -8 -7 -22 -11 -11 -18 -25 -15 -30 3 -4 -3 -8 -13 -9 -10 0 -13 -3 -6 -5 7
-3 9 -12 6 -20 -3 -7 -10 -11 -15 -8 -6 4 -4 -4 3 -17 12 -23 11 -23 -6 -9
-10 8 -16 10 -12 3 4 -6 0 -19 -9 -27 -11 -11 -12 -16 -3 -16 7 0 5 -7 -7 -16
-10 -8 -12 -12 -4 -8 10 5 9 1 -3 -14 -11 -12 -16 -26 -11 -33 4 -7 3 -10 -2
-6 -5 3 -18 -2 -29 -10 -16 -13 -17 -15 -2 -10 9 4 17 4 17 0 0 -3 -8 -12 -17
-20 -10 -8 -13 -12 -7 -9 6 3 11 -1 11 -8 0 -9 -7 -12 -16 -8 -14 5 -14 4 -1
-13 9 -11 10 -16 3 -11 -8 4 -13 2 -13 -4 0 -6 -4 -9 -9 -5 -6 3 -8 -6 -5 -21
3 -16 1 -23 -6 -19 -9 6 -14 -7 -11 -27 0 -5 -4 -8 -10 -8 -8 0 -7 -5 1 -15
11 -13 10 -14 -5 -9 -13 5 -16 4 -11 -4 4 -7 0 -15 -9 -18 -10 -4 -15 -14 -12
-25 3 -10 -1 -23 -9 -30 -8 -6 -11 -15 -8 -20 3 -5 -1 -9 -10 -9 -14 0 -16
-16 -3 -36 4 -7 0 -11 -10 -10 -9 0 -18 -5 -21 -13 -3 -10 0 -11 9 -5 12 7 12
5 0 -9 -7 -9 -18 -14 -23 -11 -6 4 -8 -2 -3 -15 4 -15 1 -23 -10 -27 -10 -4
-15 -14 -12 -26 5 -16 3 -17 -10 -6 -15 12 -15 11 -4 -11 7 -13 8 -21 3 -17
-6 3 -13 2 -17 -4 -3 -5 -1 -10 6 -10 6 0 1 -9 -12 -20 -13 -10 -18 -19 -11
-20 10 0 10 -3 0 -14 -7 -8 -16 -12 -19 -10 -3 2 -6 -7 -5 -19 1 -12 -7 -28
-17 -35 -13 -10 -15 -17 -7 -27 8 -10 8 -15 -1 -21 -8 -4 -9 -3 -5 4 12 19 2
14 -18 -10 -15 -17 -15 -20 -3 -15 9 3 19 1 23 -5 4 -6 3 -8 -4 -4 -6 3 -13 2
-17 -4 -4 -6 -12 -7 -18 -4 -9 5 -9 3 0 -6 10 -11 9 -16 -5 -27 -12 -10 -12
-12 -2 -8 9 4 8 1 -3 -8 -10 -9 -18 -18 -17 -21 0 -4 -7 -20 -16 -37 -12 -23
-12 -29 -2 -24 7 3 5 0 -4 -8 -10 -8 -15 -17 -11 -20 3 -4 0 -7 -8 -7 -11 0
-11 -2 1 -10 13 -8 12 -10 -2 -10 -10 0 -18 -5 -18 -11 0 -5 6 -7 13 -3 6 3
-1 -6 -18 -21 -16 -14 -24 -24 -17 -20 6 3 12 1 12 -5 0 -6 -6 -13 -14 -16 -9
-3 -12 -12 -9 -21 5 -12 3 -14 -8 -8 -11 7 -11 5 1 -10 9 -11 10 -16 3 -11 -7
4 -14 2 -14 -3 -4 -29 -32 -91 -42 -91 -4 0 -5 5 -1 12 4 7 3 8 -4 4 -6 -4 -8
-14 -5 -23 5 -12 3 -14 -8 -9 -8 4 -5 0 5 -8 19 -16 19 -16 -5 -16 -19 0 -21
-2 -9 -10 12 -8 12 -10 -3 -16 -9 -3 -14 -10 -11 -15 3 -5 1 -9 -5 -9 -6 0 -8
-7 -5 -15 4 -8 -1 -17 -10 -21 -12 -5 -14 -10 -6 -19 9 -11 6 -12 -12 -8 -19
4 -20 3 -8 -7 11 -9 12 -13 3 -17 -7 -2 -13 -13 -13 -24 0 -11 -6 -22 -14 -25
-8 -3 -17 -13 -20 -21 -6 -14 -4 -14 10 -2 16 13 16 12 4 -8 -8 -12 -18 -19
-22 -17 -4 3 -8 0 -8 -5 0 -10 14 -15 33 -12 4 0 7 -4 7 -10 0 -7 10 -9 25 -5
19 5 25 2 25 -10 0 -14 2 -15 17 -3 11 10 14 10 9 2 -6 -12 0 -15 20 -12 4 0
11 -5 15 -13 7 -11 9 -11 9 1 0 9 5 7 18 -6 9 -10 13 -12 7 -4 -9 12 -7 12 15
1 14 -7 26 -11 27 -9 1 2 5 0 10 -5 5 -5 2 -6 -6 -1 -9 5 -12 4 -8 -3 4 -5 16
-8 27 -5 11 3 20 1 20 -5 0 -6 9 -9 20 -7 11 2 20 0 20 -5 0 -5 7 -7 16 -3 10
4 20 -1 26 -12 8 -14 12 -15 19 -4 7 11 11 10 23 -6 8 -11 18 -17 22 -12 4 4
18 0 32 -9 17 -11 22 -12 16 -3 -6 11 -5 12 7 2 9 -7 30 -13 47 -15 18 -1 32
-5 32 -9 0 -4 9 -9 20 -12 13 -3 18 -1 14 6 -3 7 1 4 9 -5 10 -13 17 -14 25
-6 8 8 13 7 18 -6 5 -14 9 -15 15 -4 6 9 9 10 9 1 0 -7 7 -10 17 -6 12 5 14 3
8 -7 -5 -8 -3 -11 6 -8 8 3 22 -2 32 -10 16 -15 17 -14 11 4 -7 18 -6 18 17
-2 15 -13 36 -20 57 -19 17 1 32 -2 32 -6 0 -5 6 -6 14 -3 7 3 21 -2 30 -11
15 -15 16 -15 16 2 1 17 1 17 11 0 8 -14 14 -15 30 -6 19 10 20 8 15 -13 -3
-12 -3 -17 0 -10 3 6 12 12 20 12 9 0 12 -5 8 -12 -5 -7 -3 -8 6 -3 17 10 60
13 54 4 -2 -4 4 -13 13 -20 12 -10 14 -10 9 -1 -4 6 -3 12 1 12 5 0 15 -6 22
-12 11 -11 12 -10 6 2 -8 13 -6 13 7 2 13 -10 17 -10 21 0 3 8 6 6 6 -6 1 -14
4 -16 14 -8 8 7 17 6 30 -3 9 -7 36 -11 59 -10 23 2 36 0 29 -5 -9 -5 -6 -9 8
-13 14 -3 19 -1 14 6 -4 7 -1 7 9 -1 13 -10 17 -10 21 0 4 10 6 10 6 1 1 -7
13 -13 27 -13 17 0 23 -4 18 -12 -5 -9 -2 -9 9 1 11 9 17 10 17 2 0 -6 5 -11
11 -11 5 0 7 6 3 13 -4 6 3 3 16 -8 13 -11 20 -14 16 -7 -9 14 32 11 42 -4 9
-12 35 -12 44 1 4 6 8 1 8 -10 0 -17 2 -17 10 -5 9 13 10 13 10 0 0 -13 1 -13
10 0 5 8 10 10 10 3 0 -6 9 -9 20 -6 11 3 20 0 20 -6 0 -6 5 -11 11 -11 5 0 7
4 4 10 -7 12 23 2 44 -14 11 -8 13 -8 7 2 -4 6 -2 12 3 12 6 0 11 -4 11 -9 0
-5 7 -12 16 -15 14 -5 15 -4 4 9 -11 13 -10 14 4 9 9 -3 16 -11 16 -17 0 -8 3
-8 11 0 9 9 18 7 37 -5 29 -19 31 -19 43 0 7 10 9 9 9 -4 0 -10 5 -18 11 -18
5 0 7 5 3 11 -4 7 1 7 16 -1 24 -13 35 -7 35 18 0 10 7 16 18 16 14 -2 15 1 6
12 -11 13 -6 18 14 15 4 -1 3 8 -3 18 -9 17 -7 19 10 16 14 -3 18 0 13 8 -11
18 -13 38 -2 31 18 -11 31 7 17 24 -8 9 -8 13 -2 9 7 -4 14 0 18 8 3 8 0 15
-7 15 -7 0 -3 6 8 12 29 16 29 16 14 34 -13 16 -12 16 11 4 23 -12 24 -12 11
3 -12 15 -9 21 11 18 3 0 5 7 3 17 -4 25 6 36 17 21 6 -10 7 -7 3 9 -4 14 -2
22 6 22 8 0 8 4 -1 15 -11 13 -10 14 5 9 13 -5 16 -4 11 4 -4 7 -3 12 3 12 6
0 7 7 4 17 -4 10 -2 14 5 9 6 -3 13 -2 17 4 3 5 0 10 -7 10 -10 0 -10 2 1 9 8
5 10 14 5 22 -6 12 -5 12 8 1 14 -11 16 -10 14 12 -2 17 2 26 11 26 8 0 11 5
8 10 -3 6 -1 10 6 10 8 0 8 4 -1 15 -11 13 -10 14 4 9 12 -5 15 -2 9 12 -5 13
-3 15 7 9 10 -6 12 -4 7 9 -6 14 -3 17 9 12 14 -5 15 -4 4 9 -10 12 -10 15 0
15 7 0 10 7 6 16 -5 14 -4 15 8 5 13 -11 15 -9 11 8 -2 13 1 21 10 21 9 0 11
7 7 22 -3 14 -2 19 6 14 8 -5 12 2 12 18 0 16 6 26 14 26 7 0 16 9 19 20 3 13
1 18 -6 14 -7 -3 -4 1 6 9 10 9 18 19 19 24 0 4 3 7 7 6 4 -1 8 7 9 18 4 47 5
49 17 39 9 -8 12 -4 10 15 -2 16 2 25 11 25 8 0 11 6 7 17 -4 10 -2 14 5 9 6
-3 14 -1 18 5 4 8 3 9 -4 5 -20 -12 -13 9 9 27 13 12 18 24 14 38 -4 13 -2 19
7 17 7 -2 12 3 10 10 -1 6 2 12 8 12 5 0 6 7 3 17 -5 12 -3 14 7 8 10 -6 12
-2 8 19 -4 21 -3 24 8 15 10 -8 12 -6 9 10 -2 12 0 21 6 21 5 0 9 7 9 15 0 8
8 15 18 15 11 0 13 3 5 8 -17 11 1 37 18 27 8 -5 6 1 -4 12 -18 20 -18 21 0
19 12 -1 17 5 15 18 -2 13 1 17 11 13 8 -3 14 1 14 9 0 8 -5 14 -11 14 -6 1
-1 6 10 13 12 7 20 20 18 30 -1 10 4 21 12 24 8 3 11 10 7 16 -4 7 0 8 12 3
15 -5 16 -4 5 9 -9 11 -9 15 -1 15 7 0 9 5 6 10 -3 6 1 10 11 10 14 0 15 2 3
17 -10 11 -10 14 -1 9 7 -4 12 -1 12 9 0 9 4 14 9 11 5 -3 12 1 15 10 3 8 2
12 -4 9 -6 -3 -7 1 -4 9 3 9 11 13 17 9 6 -4 8 2 5 15 -4 12 -2 20 3 16 5 -3
9 0 9 6 0 6 5 8 13 4 8 -5 8 -2 -2 9 -9 12 -10 17 -2 17 7 0 9 5 5 12 -5 7 -2
9 7 6 10 -4 15 2 17 21 1 14 8 31 15 36 8 6 12 16 9 24 -3 9 0 11 8 6 9 -5 10
-2 5 15 -5 14 -3 20 3 16 11 -7 34 49 24 59 -4 3 1 3 11 -1 13 -5 16 -2 11 10
-3 9 -1 16 5 16 6 0 11 5 11 11 0 5 -6 7 -12 4 -7 -4 -4 0 6 9 10 8 23 13 29
9 6 -3 7 -1 3 6 -4 6 -13 9 -19 5 -7 -3 -4 1 5 9 10 8 15 17 11 20 -3 4 -1 7
5 7 7 0 12 9 12 21 0 15 5 19 15 15 12 -4 13 -2 6 12 -9 18 9 55 25 52 5 -1
10 4 13 11 2 8 -1 9 -10 3 -11 -6 -12 -5 -2 8 7 8 9 19 5 24 -4 4 0 3 8 -3 13
-10 16 -8 17 10 1 12 7 23 13 25 7 3 7 9 -2 20 -10 12 -10 14 0 8 7 -4 12 -2
12 4 0 6 5 8 13 4 8 -5 7 -2 -2 10 -13 15 -12 18 8 23 17 4 19 8 9 14 -10 7
-11 9 0 9 7 0 11 4 8 9 -3 5 1 11 9 15 8 3 15 15 15 26 0 14 4 19 12 14 7 -5
9 0 6 14 -4 13 0 23 9 26 9 4 13 13 9 22 -4 12 -2 15 9 11 8 -4 17 -1 21 5 5
7 2 8 -6 3 -9 -6 -10 -2 -5 16 4 13 12 29 18 34 7 7 7 6 2 -4 -5 -9 -4 -12 3
-8 5 4 8 16 5 27 -3 12 0 20 6 20 7 0 9 -5 5 -12 -4 -6 -3 -8 3 -5 6 4 9 18 8
32 -2 14 0 25 5 25 4 0 10 9 13 21 3 12 10 18 16 15 5 -4 13 -1 17 5 4 7 3 9
-3 6 -6 -4 -14 0 -17 9 -3 8 -2 13 3 10 11 -7 23 22 14 36 -4 7 -1 8 6 4 8 -5
14 0 18 13 3 12 10 21 15 21 6 0 8 6 5 14 -3 8 1 20 9 26 8 7 14 19 14 26 0 8
4 14 10 14 5 0 15 10 21 23 12 21 11 21 -7 7 -19 -14 -19 -14 0 7 10 13 24 20
30 16 6 -4 5 1 -3 10 -7 9 -9 17 -3 17 5 0 12 13 15 30 5 21 11 28 22 24 11
-5 14 -2 8 12 -5 13 -3 15 8 9 11 -7 11 -5 -1 10 -13 17 -13 18 0 13 12 -4 16
1 18 21 1 14 7 28 12 29 6 2 10 10 10 18 0 9 5 12 12 8 7 -4 8 -3 4 4 -4 7 -2
12 4 12 6 0 8 5 4 12 -4 6 -1 16 7 22 8 6 14 18 14 26 0 8 5 14 11 13 7 -1 10
6 7 17 -3 12 1 22 10 26 9 3 13 12 10 21 -5 12 -1 14 18 8 13 -3 19 -3 13 2
-16 13 -13 55 5 48 11 -5 12 -3 1 10 -11 13 -10 14 3 10 8 -4 18 -1 23 6 4 7
3 10 -4 5 -6 -4 -10 1 -9 13 1 11 6 17 14 14 9 -4 11 0 6 13 -4 11 -3 15 4 11
6 -4 14 0 17 9 3 8 2 13 -2 10 -5 -3 -9 1 -9 8 0 8 7 12 15 8 9 -3 13 -1 9 5
-4 6 0 13 8 17 9 3 12 12 8 22 -4 12 -3 15 5 10 8 -5 10 -2 6 8 -3 9 -2 16 4
16 6 0 13 -6 15 -12 3 -7 4 2 2 20 -2 17 1 32 6 32 6 0 7 5 3 12 -5 8 -2 9 10
5 14 -6 15 -4 5 14 -7 14 -7 19 0 15 5 -4 15 2 20 13 14 25 14 34 0 26 -6 -4
-5 2 2 13 7 12 18 18 24 14 5 -3 4 1 -3 10 -10 13 -10 18 -1 24 8 5 9 3 4 -6
-6 -9 -4 -11 4 -6 7 5 10 11 7 14 -3 3 1 13 10 23 14 16 13 18 -8 33 -12 9
-17 16 -10 16 7 0 0 12 -16 28 -15 15 -20 21 -10 13 17 -13 18 -13 13 2 -4 9
-19 20 -33 26 -15 5 -21 10 -14 10 7 1 10 6 7 11 -5 8 -11 8 -20 0 -10 -8 -15
-8 -21 1 -5 8 -3 10 7 4 8 -5 11 -5 7 0 -11 12 -78 12 -78 0 0 -5 -5 -3 -10 5
-9 13 -10 13 -10 0 -1 -11 -4 -10 -15 4 -12 16 -15 17 -15 4 0 -10 -7 -14 -22
-12 -64 9 -117 11 -113 4 3 -5 -3 -7 -12 -5 -10 1 -17 9 -15 16 2 11 -1 10
-10 -1 -13 -15 -59 -18 -90 -5 -13 5 -18 2 -18 -11 0 -17 -1 -16 -15 2 -11 15
-15 16 -15 4 -1 -10 -4 -9 -10 5 -8 19 -9 19 -9 1 -1 -15 -4 -16 -16 -6 -8 7
-15 9 -15 4 0 -10 -98 -9 -108 0 -3 3 -12 0 -20 -7 -13 -10 -15 -9 -9 8 7 20
7 20 -8 1 -8 -11 -15 -14 -15 -8 0 9 -5 10 -19 3 -10 -6 -21 -8 -23 -5 -10 10
-128 9 -128 -1 0 -5 -5 -3 -10 5 -9 13 -10 13 -10 0 0 -13 -1 -13 -10 0 -9 13
-10 13 -10 0 0 -13 -1 -13 -10 0 -9 13 -10 13 -10 0 0 -13 -1 -13 -10 0 -8 12
-10 12 -10 1 0 -10 -3 -11 -13 -2 -10 8 -17 7 -27 -2 -10 -10 -12 -8 -6 8 6
20 6 20 -9 1 -8 -11 -15 -14 -15 -7 0 8 -5 9 -17 3 -9 -5 -28 -6 -43 -2 -15 4
-33 4 -41 -1 -8 -5 -16 -3 -21 4 -6 9 -8 8 -8 -3 0 -13 -1 -13 -10 0 -9 13
-10 13 -11 0 0 -10 -3 -8 -9 5 -8 18 -9 18 -9 2 -1 -14 -5 -16 -20 -7 -14 7
-21 6 -24 -3 -3 -6 -6 -3 -7 8 -1 17 -3 17 -11 -5 -9 -21 -12 -23 -22 -10 -15
19 -37 24 -37 8 0 -9 -4 -8 -10 2 -9 13 -10 13 -10 0 0 -13 -1 -13 -10 0 -8
12 -10 12 -10 1 0 -10 -3 -11 -13 -2 -10 8 -17 7 -25 -1 -9 -9 -12 -7 -13 8 0
18 -1 18 -9 -1 -5 -11 -9 -15 -9 -10 -1 13 -41 14 -41 2 0 -5 -7 -4 -15 3 -12
10 -15 10 -15 -1 -1 -9 -5 -8 -15 5 -15 20 -15 20 -15 0 0 -16 -2 -17 -10 -4
-8 12 -10 12 -10 1 0 -11 -3 -11 -15 -1 -12 10 -15 10 -15 -1 -1 -9 -5 -8 -15
5 -13 17 -15 17 -15 4 0 -9 -5 -20 -12 -24 -6 -4 -8 -3 -5 3 4 6 -6 13 -23 15
-17 3 -30 0 -31 -6 0 -6 -4 -2 -9 9 l-9 20 0 -20 c-1 -17 -3 -17 -11 -5 -9 13
-10 13 -10 0 0 -13 -1 -13 -10 0 -9 13 -10 13 -11 0 0 -10 -3 -8 -9 5 -8 19
-9 19 -9 1 -1 -15 -4 -16 -16 -6 -8 7 -15 8 -15 3 0 -5 -9 -9 -20 -9 -11 0
-20 5 -20 11 0 5 -5 3 -10 -5 -5 -8 -10 -10 -10 -4 0 16 -32 12 -48 -6 -8 -8
-11 -10 -8 -3 4 6 2 14 -4 18 -5 3 -10 0 -10 -7 0 -9 -3 -9 -10 2 -9 13 -10
13 -10 0 -1 -11 -4 -10 -15 4 -13 17 -15 17 -15 3z m2005 -148 c-10 -15 -25
-10 -19 6 4 8 10 12 15 9 5 -3 7 -10 4 -15z m-2590 -749 c-3 -5 -11 -10 -16
-10 -6 0 -7 5 -4 10 3 6 11 10 16 10 6 0 7 -4 4 -10z m-335 -2516 c0 -8 -19
-13 -24 -6 -3 5 1 9 9 9 8 0 15 -2 15 -3z"/>
<path d="M110 9150 c0 -5 5 -10 11 -10 5 0 7 5 4 10 -3 6 -8 10 -11 10 -2 0
-4 -4 -4 -10z"/>
<path d="M136 9097 c3 -9 11 -17 17 -17 6 0 8 -3 4 -6 -3 -3 3 -16 14 -27 15
-16 16 -23 7 -30 -9 -6 -7 -7 6 -3 14 5 17 2 12 -9 -3 -9 -2 -13 4 -10 6 3 10
-3 10 -14 0 -12 5 -21 11 -21 5 0 8 4 4 9 -3 6 3 14 12 20 16 9 16 10 -4 11
-13 0 -24 5 -24 10 -1 6 -3 15 -4 20 -1 6 -3 16 -4 23 -1 9 -4 8 -10 -2 -7
-11 -10 -10 -15 6 -4 11 -16 29 -27 39 -18 16 -19 16 -13 1z"/>
<path d="M233 8960 c-2 -22 21 -27 33 -8 5 7 2 9 -9 5 -11 -4 -14 -2 -10 9 3
7 1 14 -4 14 -5 0 -9 -9 -10 -20z"/>
<path d="M252 8931 c-10 -6 -8 -10 9 -14 12 -3 30 -2 38 4 12 8 10 8 -8 3 -16
-4 -21 -3 -17 5 8 13 -3 14 -22 2z"/>
<path d="M253 8895 c0 -8 4 -12 9 -9 4 3 8 -2 8 -12 0 -13 3 -14 13 -5 8 6 17
8 20 4 4 -3 7 -1 7 6 0 6 -12 16 -26 21 -32 13 -31 13 -31 -5z"/>
<path d="M286 8853 c-3 -8 2 -13 12 -13 15 0 15 -2 2 -10 -13 -8 -12 -10 5
-11 11 -1 22 -1 25 -1 3 0 6 -8 6 -19 0 -19 -1 -19 -13 -3 -11 15 -12 15 -10
-4 0 -11 4 -20 7 -20 25 2 32 -3 21 -16 -10 -11 -8 -17 9 -29 16 -11 18 -16 8
-20 -9 -4 -8 -6 4 -6 9 -1 19 5 21 12 4 9 6 9 6 0 1 -6 -4 -15 -10 -18 -6 -5
-4 -12 8 -22 10 -8 12 -12 6 -8 -9 4 -11 1 -7 -9 3 -9 10 -13 15 -10 5 3 9 -2
9 -12 0 -9 9 -25 21 -35 11 -10 18 -23 14 -28 -3 -6 1 -11 11 -11 11 0 15 -6
11 -20 -4 -15 0 -20 16 -20 18 0 19 -2 7 -10 -12 -7 -12 -10 -1 -10 8 0 11 -6
7 -16 -3 -8 -2 -13 2 -11 4 3 13 -1 20 -9 10 -11 10 -14 0 -14 -9 0 -9 -3 2
-9 8 -6 17 -8 20 -6 4 2 7 -2 7 -10 0 -8 -3 -12 -7 -10 -4 2 -7 -2 -7 -9 0 -8
7 -12 15 -8 10 3 13 1 8 -6 -4 -7 -2 -12 4 -12 6 0 8 -4 5 -10 -3 -5 -1 -10 5
-10 7 0 9 -7 6 -16 -3 -8 -2 -12 4 -9 6 3 10 -1 10 -10 0 -8 7 -18 16 -22 13
-5 13 -7 2 -14 -10 -7 -8 -9 6 -9 13 0 17 -5 13 -20 -3 -12 -1 -17 5 -14 5 3
12 -3 15 -15 3 -12 10 -18 17 -14 6 4 4 -2 -4 -12 -14 -17 -13 -18 2 -13 12 5
16 1 14 -17 -2 -17 1 -22 12 -17 10 3 13 1 8 -6 -4 -7 -2 -12 4 -12 7 0 9 -8
5 -20 -5 -14 -2 -20 9 -20 9 0 16 -8 16 -19 0 -11 9 -21 22 -24 18 -5 19 -8 8
-21 -10 -13 -10 -16 4 -16 10 0 14 -4 11 -10 -3 -5 -1 -10 4 -10 6 0 11 -9 11
-21 0 -11 4 -17 10 -14 5 3 10 -1 10 -9 0 -9 6 -16 13 -16 8 0 7 -4 -3 -10
-11 -7 -11 -10 -2 -10 7 0 10 -4 7 -10 -3 -5 1 -10 9 -10 14 0 18 -6 15 -26 0
-4 5 -11 13 -15 11 -7 10 -11 -2 -20 -13 -9 -13 -10 2 -6 9 3 22 -2 30 -11 11
-13 11 -15 -2 -7 -12 7 -13 6 -3 -7 7 -8 10 -18 6 -21 -3 -4 1 -7 10 -7 9 0
19 -5 23 -12 4 -7 3 -8 -4 -4 -7 4 -12 1 -12 -8 0 -9 3 -15 8 -13 4 1 8 -2 9
-6 1 -5 11 -17 23 -27 15 -13 17 -19 8 -23 -8 -3 -6 -6 5 -6 10 -1 15 -5 12
-11 -3 -5 -1 -10 5 -10 7 0 7 -7 -1 -22 -12 -22 -11 -23 8 -5 20 17 20 17 18
-8 -2 -17 2 -25 12 -25 13 0 13 -2 2 -17 -8 -9 -9 -14 -4 -11 6 3 15 0 22 -7
10 -11 10 -15 0 -18 -7 -3 -5 -6 5 -6 9 -1 20 -6 24 -13 4 -7 3 -8 -4 -4 -7 4
-12 2 -12 -3 0 -6 5 -11 11 -11 5 0 7 -4 4 -10 -4 -6 1 -7 12 -3 16 6 17 5 3
-12 -12 -15 -12 -17 -1 -10 11 6 13 4 7 -11 -4 -10 -4 -15 0 -12 8 9 37 -20
40 -38 1 -8 -3 -11 -9 -8 -7 3 -1 -4 12 -15 14 -13 21 -27 17 -37 -4 -11 -2
-15 8 -11 10 4 13 1 10 -7 -3 -8 0 -17 7 -22 8 -5 10 -3 4 6 -5 9 -4 11 4 6 9
-6 9 -11 0 -22 -6 -8 -9 -17 -5 -21 3 -3 6 -1 6 7 0 10 3 10 15 0 8 -7 15 -20
15 -29 0 -9 7 -26 15 -37 8 -12 11 -25 7 -29 -4 -5 -1 -5 6 -1 6 4 12 2 12 -4
0 -6 5 -8 12 -4 8 5 7 0 -2 -11 -14 -17 -13 -18 2 -12 10 3 20 1 24 -5 4 -7 3
-8 -4 -4 -17 10 -9 -31 8 -47 12 -10 12 -9 2 5 -10 12 -10 18 -1 24 7 4 9 3 5
-4 -3 -6 -2 -13 3 -17 6 -3 8 -12 5 -19 -3 -8 6 -25 20 -39 17 -17 21 -27 13
-30 -9 -4 -9 -6 1 -6 8 -1 10 -6 6 -13 -5 -8 -2 -8 10 1 15 12 17 12 14 0 -2
-8 -7 -17 -13 -21 -6 -5 -3 -8 6 -8 9 0 20 -7 23 -16 4 -10 1 -13 -7 -9 -6 3
-2 -2 11 -11 22 -17 32 -51 10 -38 -7 4 -8 3 -4 -4 4 -6 14 -8 23 -5 13 5 15
2 11 -15 -5 -17 -2 -22 14 -22 10 0 17 -4 14 -9 -8 -13 4 -42 14 -36 5 3 11 1
15 -5 3 -5 -1 -10 -9 -10 -9 0 -16 -4 -16 -9 0 -5 8 -8 18 -7 10 0 17 -6 17
-17 0 -10 8 -23 18 -29 15 -8 16 -12 5 -25 -11 -14 -10 -15 12 -8 22 7 23 6
11 -9 -12 -14 -11 -16 3 -16 9 0 15 -3 15 -7 -3 -19 2 -33 17 -47 8 -9 16 -24
17 -35 1 -12 6 -17 16 -13 9 3 12 1 7 -6 -4 -7 -2 -12 5 -12 8 0 8 -5 -2 -17
-7 -10 -9 -15 -5 -11 10 9 56 -49 56 -70 0 -7 4 -11 9 -8 5 3 12 -1 15 -10 3
-8 2 -12 -4 -9 -6 3 -10 1 -10 -4 0 -6 8 -11 17 -11 9 0 13 -3 10 -6 -9 -9 12
-46 23 -39 4 3 6 -4 3 -15 -4 -15 0 -20 13 -20 16 0 17 -2 4 -10 -13 -8 -13
-10 1 -10 19 0 35 -30 16 -30 -8 0 -7 -4 3 -9 8 -6 17 -8 20 -6 4 2 7 -2 7
-10 0 -8 -4 -12 -9 -9 -4 3 -5 -2 -2 -11 4 -9 13 -14 20 -11 9 3 11 0 7 -11
-5 -12 -3 -14 7 -8 10 6 12 4 7 -8 -3 -9 -2 -19 4 -22 5 -4 7 -10 4 -15 -3 -5
0 -12 6 -16 8 -4 9 -3 5 4 -4 7 -5 12 -2 12 3 0 10 -10 17 -21 9 -17 8 -20 -3
-13 -11 6 -11 5 1 -9 7 -9 17 -14 22 -11 5 3 9 0 9 -5 0 -6 -5 -11 -11 -11 -6
0 -4 -7 5 -15 8 -9 14 -21 12 -28 -1 -7 -1 -9 1 -4 3 4 10 7 16 7 5 0 7 -3 4
-7 -4 -3 1 -16 10 -27 17 -20 17 -20 -2 -7 -11 8 -8 2 8 -13 15 -15 25 -31 22
-37 -4 -5 -1 -9 4 -9 6 0 11 -7 11 -16 0 -8 5 -12 11 -9 6 4 10 1 8 -6 -3 -27
1 -40 11 -34 6 3 10 -3 10 -14 0 -12 5 -21 11 -21 5 0 7 -4 4 -10 -3 -5 -1
-10 6 -10 7 0 9 -3 6 -6 -4 -4 3 -15 15 -25 11 -11 18 -19 13 -19 -4 0 -2 -6
4 -14 9 -11 9 -15 -1 -20 -7 -3 -3 -4 9 -2 16 3 20 0 16 -12 -5 -10 -2 -13 6
-8 8 5 11 3 10 -5 -3 -16 21 -69 31 -69 4 0 7 -7 8 -15 1 -8 3 -22 4 -30 1 -8
5 -12 10 -9 5 3 5 11 1 17 -4 7 1 6 10 -2 13 -10 15 -17 6 -27 -9 -11 -8 -14
1 -14 7 0 10 -8 7 -19 -3 -14 -1 -18 9 -14 10 4 14 -3 14 -22 0 -23 3 -25 14
-16 12 10 14 8 12 -13 -3 -24 5 -31 28 -27 5 1 4 -5 -4 -13 -9 -12 -9 -16 -1
-16 7 0 9 -5 5 -12 -5 -7 -2 -9 9 -5 11 4 14 2 10 -9 -3 -7 0 -14 7 -14 6 0 8
-4 5 -10 -3 -5 -1 -10 4 -10 6 0 10 -3 10 -7 -3 -21 2 -33 12 -27 8 5 10 -1 7
-19 -4 -19 -1 -24 10 -19 11 4 14 1 9 -11 -5 -13 -1 -17 16 -18 21 0 21 -1 2
-9 -17 -7 -17 -9 -3 -9 12 -1 15 -6 11 -18 -5 -12 -3 -14 7 -8 10 6 12 3 8
-13 -4 -15 -2 -19 8 -15 8 3 15 0 15 -6 4 -32 6 -36 16 -34 6 1 10 -5 9 -15 0
-9 4 -16 10 -15 7 1 10 -6 7 -17 -3 -11 -1 -20 4 -20 5 0 15 -16 23 -35 7 -19
16 -32 20 -30 3 2 12 -6 20 -18 12 -21 12 -21 -5 -7 -18 14 -18 13 0 -11 11
-15 25 -24 30 -21 6 3 4 -1 -3 -10 -11 -14 -10 -18 7 -28 11 -6 26 -20 32 -31
9 -17 8 -20 -3 -14 -7 3 -5 0 4 -8 10 -8 15 -17 11 -20 -3 -4 -1 -7 5 -7 7 0
11 -6 9 -12 -1 -7 3 -12 9 -11 7 1 10 -6 7 -17 -3 -12 0 -20 6 -20 7 0 9 5 5
12 -5 7 -3 8 5 4 7 -5 10 -11 7 -14 -3 -3 0 -12 7 -20 9 -13 9 -14 0 -8 -7 4
-13 2 -13 -3 0 -6 7 -11 15 -11 13 0 21 -26 16 -54 -1 -5 6 -3 15 5 16 12 17
12 11 -4 -4 -12 -1 -20 10 -24 15 -6 14 -7 -3 -14 -17 -7 -17 -8 4 -8 15 -1
22 -7 22 -21 0 -11 5 -20 10 -20 6 0 10 -7 10 -16 0 -9 5 -12 13 -8 8 5 7 2
-2 -9 -12 -15 -12 -17 3 -11 12 5 15 2 9 -12 -4 -11 -3 -15 4 -11 6 4 14 0 17
-9 3 -8 2 -12 -4 -9 -6 3 -7 -1 -4 -9 3 -9 10 -13 15 -10 5 3 9 -4 9 -15 0
-12 5 -21 11 -21 6 0 8 -7 5 -16 -5 -13 -3 -14 7 -6 13 11 15 5 19 -46 1 -7 7
-11 14 -8 7 3 11 0 8 -7 -2 -7 7 -24 21 -37 14 -13 25 -28 25 -34 0 -5 -7 -1
-16 10 -14 18 -15 18 -4 -3 6 -13 16 -23 21 -23 6 0 9 -7 5 -15 -3 -9 0 -15 9
-15 8 0 15 -7 15 -16 0 -8 7 -22 16 -31 8 -9 13 -22 10 -29 -3 -7 4 -16 15
-19 10 -4 19 -13 19 -20 0 -23 22 -65 31 -59 9 5 13 -9 10 -34 -1 -7 3 -11 10
-10 6 2 13 -5 14 -15 2 -10 12 -25 22 -34 10 -8 13 -12 7 -9 -6 3 -11 -1 -11
-8 0 -8 6 -12 13 -9 6 2 15 -1 20 -8 5 -8 3 -10 -7 -5 -8 4 -5 0 5 -8 18 -14
15 -21 -7 -17 -5 1 -6 -3 -2 -8 3 -6 12 -8 20 -4 10 3 15 -2 15 -16 0 -12 5
-21 11 -21 5 0 7 -5 4 -10 -3 -5 -1 -10 5 -10 7 0 9 -7 6 -16 -3 -8 -2 -12 4
-9 6 3 10 -1 10 -10 0 -10 5 -13 12 -9 6 4 8 3 4 -4 -3 -6 1 -18 10 -26 9 -9
13 -24 10 -33 -6 -13 -4 -14 9 -3 9 7 15 9 14 4 -1 -5 -1 -20 0 -34 1 -20 3
-22 11 -10 8 12 10 10 10 -10 0 -14 7 -34 15 -44 8 -10 12 -23 9 -28 -3 -5 -2
-8 3 -7 19 3 34 -2 28 -10 -3 -5 1 -16 9 -24 11 -11 12 -17 3 -27 -9 -10 -9
-11 0 -6 8 5 13 1 13 -9 0 -11 5 -15 14 -12 11 4 13 -2 10 -26 -2 -23 -1 -28
6 -17 6 10 10 11 10 3 0 -30 19 -54 35 -45 6 3 3 -3 -5 -13 -9 -11 -10 -16 -2
-11 7 4 12 2 12 -5 0 -6 8 -18 18 -26 9 -8 11 -12 5 -8 -8 4 -6 -6 4 -24 10
-16 22 -27 28 -23 5 3 3 -3 -5 -13 -9 -11 -10 -16 -2 -11 7 4 12 2 12 -4 0 -6
4 -9 9 -6 4 3 7 -6 5 -19 -1 -14 1 -23 5 -21 4 3 13 1 21 -5 12 -6 12 -9 2 -9
-10 0 -10 -4 2 -16 9 -8 16 -22 16 -30 0 -8 5 -14 11 -14 5 0 7 -5 3 -12 -5
-7 -2 -9 9 -5 11 4 15 1 12 -13 -2 -11 3 -26 11 -34 8 -8 14 -20 14 -26 0 -17
26 -40 36 -32 5 4 2 -2 -6 -12 -10 -13 -10 -17 -3 -12 9 5 13 1 13 -13 0 -11
5 -23 12 -27 7 -5 8 -3 3 6 -5 8 -4 11 3 6 6 -4 9 -13 5 -21 -3 -10 1 -15 12
-15 9 0 14 -4 10 -9 -3 -6 3 -24 14 -42 11 -18 17 -37 14 -43 -4 -6 0 -6 8 1
12 10 15 8 16 -10 1 -12 7 -23 13 -25 5 -2 10 -10 10 -17 0 -7 6 -16 13 -18 8
-4 7 -6 -3 -7 -10 0 -6 -6 10 -15 14 -8 19 -14 10 -15 -9 0 -7 -5 8 -16 13 -9
21 -22 18 -29 -2 -7 2 -16 10 -19 8 -3 14 -13 14 -21 0 -9 4 -14 9 -11 5 3 8
-2 7 -12 0 -10 5 -16 13 -14 12 3 12 1 0 -14 -9 -12 -9 -15 -1 -10 11 6 17 -5
13 -26 0 -5 3 -8 9 -8 5 0 10 -7 10 -16 0 -8 4 -13 9 -9 12 7 25 -31 16 -45
-3 -5 1 -10 9 -10 8 0 18 -5 22 -12 4 -7 3 -8 -4 -4 -7 4 -12 2 -12 -3 0 -11
15 -15 34 -12 5 1 3 -6 -5 -15 -9 -12 -9 -15 -1 -10 11 7 17 -11 13 -37 -1 -5
3 -6 9 -2 9 6 15 -8 11 -29 -1 -5 5 -6 13 -3 10 4 13 1 9 -9 -3 -7 0 -14 6
-14 6 0 8 -7 4 -17 -4 -10 -2 -14 4 -10 16 10 26 -25 11 -35 -8 -6 -4 -7 11
-3 19 6 23 4 18 -7 -3 -8 3 -21 14 -29 18 -13 18 -14 2 -21 -15 -5 -14 -7 6
-7 18 -1 22 -5 18 -21 -3 -14 0 -20 10 -20 11 0 14 -6 10 -21 -4 -15 -2 -19 9
-15 9 3 12 1 9 -4 -3 -6 1 -13 10 -16 12 -5 13 -9 4 -21 -10 -11 -9 -13 2 -11
8 2 13 -2 12 -9 -2 -7 3 -10 11 -7 11 4 13 0 9 -15 -4 -17 -2 -20 12 -14 11 4
16 2 12 -3 -4 -6 7 -9 26 -6 26 3 29 1 17 -8 -13 -10 -12 -11 3 -6 10 3 21 6
23 6 3 0 3 4 0 9 -9 13 19 7 38 -8 14 -12 16 -12 11 1 -4 9 0 15 9 15 8 0 13
-4 11 -8 -7 -10 22 -5 32 6 4 4 1 5 -7 1 -8 -4 -6 0 5 8 11 9 25 14 33 11 7
-2 10 0 7 5 -3 6 -13 10 -21 10 -8 0 -14 4 -14 9 0 5 6 8 13 7 6 0 14 4 16 9
3 6 11 16 18 23 7 7 13 22 13 33 0 11 6 22 14 25 8 3 13 14 11 24 -2 12 1 17
10 14 7 -3 16 0 21 7 4 8 3 10 -4 5 -7 -4 -12 -1 -12 9 0 10 5 13 12 9 8 -5 9
-2 5 9 -4 12 -1 17 9 17 10 0 14 6 11 15 -4 8 -2 17 4 20 5 4 7 11 4 16 -4 5
-1 9 4 9 6 0 11 7 11 15 0 8 5 15 11 15 5 0 7 5 4 10 -3 6 2 10 12 11 10 0 13
3 6 6 -7 2 -13 9 -13 14 0 6 5 7 10 4 10 -6 13 3 13 38 0 14 2 15 15 5 11 -9
14 -9 9 -1 -4 6 -3 14 2 18 6 3 7 13 4 22 -4 11 -3 14 5 9 8 -5 12 1 12 18 0
14 5 26 11 26 5 0 7 5 4 10 -4 6 -1 9 6 8 8 -2 13 6 14 19 0 12 4 25 9 30 5 5
6 3 2 -4 -4 -7 -5 -13 -2 -13 3 0 10 10 17 21 8 16 8 20 -1 14 -8 -5 -8 -1 1
13 7 12 16 19 20 16 5 -2 6 4 4 16 -2 11 1 23 7 26 7 5 8 2 3 -6 -5 -9 -4 -11
4 -6 7 5 9 16 5 28 -5 16 -3 20 9 15 11 -4 15 -1 12 13 -2 10 5 28 16 41 10
12 16 26 12 32 -4 6 -1 7 7 2 10 -6 12 -4 7 9 -4 10 -1 19 8 22 8 4 15 13 15
21 0 8 4 11 10 8 6 -4 7 1 3 11 -4 12 -3 15 5 10 8 -5 10 -1 5 10 -5 14 -3 16
12 11 14 -6 15 -5 7 6 -7 8 -7 18 -2 27 5 8 7 17 4 21 -2 5 5 6 17 4 16 -3 19
-1 12 6 -8 8 -7 18 3 37 7 14 11 29 8 33 -2 4 5 6 17 4 17 -3 19 -2 9 10 -12
15 -5 39 10 30 4 -3 11 2 14 11 4 9 2 13 -5 8 -8 -4 -7 0 0 15 7 11 14 21 17
21 3 0 2 -5 -2 -12 -4 -7 -3 -8 5 -4 6 4 9 12 6 17 -4 5 1 12 9 15 9 3 16 11
16 17 0 7 -4 7 -12 -1 -7 -7 -17 -12 -22 -12 -6 0 0 7 12 16 12 8 20 19 17 24
-3 4 2 11 11 14 8 3 12 10 9 16 -3 5 1 10 9 10 10 0 13 6 9 16 -3 9 2 21 15
30 13 9 18 21 15 34 -3 11 -1 20 5 20 6 0 14 9 17 20 4 11 11 17 17 14 7 -4 8
-2 4 5 -4 6 -2 18 4 26 7 8 10 21 7 29 -4 10 -1 13 9 9 9 -3 14 2 14 17 0 14
4 19 13 14 8 -5 7 -2 -2 9 -12 15 -12 17 4 11 13 -5 16 -4 11 5 -5 7 0 18 10
27 11 9 13 13 7 9 -7 -3 -13 -1 -13 4 0 6 5 11 11 11 6 0 8 7 4 18 -5 14 -4
15 6 4 7 -6 18 -12 24 -12 5 0 4 4 -3 8 -13 9 -6 42 9 42 5 0 9 4 9 10 0 5 -8
7 -17 3 -15 -5 -14 -3 2 10 11 8 23 14 26 11 3 -2 5 8 3 21 -1 14 2 23 7 19 5
-3 10 2 10 10 1 9 2 21 3 27 0 6 10 17 20 25 14 10 16 14 5 14 -8 1 -5 6 9 13
12 7 20 16 16 20 -4 4 0 15 9 24 15 17 17 22 17 41 0 4 5 0 10 -8 8 -11 9 -7
4 14 -5 21 -4 27 5 22 6 -4 11 0 11 10 0 9 8 23 18 31 9 8 12 12 5 9 -8 -5 -8
0 0 18 7 13 15 22 19 20 8 -5 11 5 11 38 0 10 3 15 7 13 4 -3 14 3 21 12 10
12 10 14 2 9 -21 -12 -15 0 17 34 24 25 28 36 19 46 -9 11 -8 14 6 14 14 0 15
3 5 15 -11 13 -10 14 2 10 9 -4 18 1 22 10 4 11 2 14 -7 10 -6 -4 -5 -1 3 7 9
7 14 22 12 33 -2 16 -1 17 7 5 10 -13 11 -13 12 0 1 8 2 22 3 30 0 8 8 15 17
14 20 -1 13 52 -8 60 -8 3 -11 1 -8 -4 3 -6 1 -10 -4 -10 -6 0 -11 6 -11 14 0
9 -7 13 -19 11 -11 -2 -27 5 -36 16 -10 10 -22 16 -27 13 -5 -3 -15 0 -23 6
-8 6 -19 9 -25 5 -5 -3 -10 -1 -10 4 0 6 -9 11 -20 11 -12 0 -20 7 -20 18 0
14 -2 15 -10 2 -7 -11 -10 -11 -10 -2 0 7 -4 10 -10 7 -5 -3 -10 0 -10 7 0 9
-3 9 -10 -2 -8 -13 -10 -12 -10 3 0 10 -4 16 -9 13 -13 -8 -42 4 -35 15 3 5
-3 6 -12 2 -10 -4 -15 -2 -11 3 3 6 -4 11 -16 11 -12 1 -23 7 -25 13 -3 7 -9
7 -20 -2 -12 -10 -14 -10 -8 0 4 7 2 12 -4 12 -6 0 -8 5 -4 13 6 9 5 9 -8 -1
-13 -10 -18 -9 -29 5 -13 17 -13 17 6 3 17 -12 18 -12 7 0 -7 8 -23 15 -35 15
-13 1 -21 6 -19 15 3 11 0 11 -12 1 -11 -9 -16 -9 -22 0 -5 8 -3 9 6 4 8 -5
11 -4 6 3 -4 6 -13 9 -21 5 -8 -3 -15 0 -15 7 0 6 -4 9 -9 5 -5 -3 -17 5 -27
17 -11 15 -14 17 -11 6 5 -15 4 -16 -13 -6 -10 7 -17 15 -15 18 2 4 -6 6 -18
5 -29 -3 -48 5 -41 16 3 5 -3 9 -13 9 -11 0 -24 5 -30 11 -6 6 -19 12 -29 14
-11 1 -18 8 -16 15 1 6 -2 9 -7 6 -5 -4 -19 4 -30 16 -12 12 -21 18 -21 14 0
-5 -7 -3 -15 4 -13 11 -15 10 -10 -6 5 -14 3 -13 -7 4 -11 18 -16 20 -27 10
-8 -7 -11 -8 -8 -3 3 6 2 17 -4 25 -7 13 -9 13 -9 0 -1 -12 -3 -11 -11 3 -6 9
-14 15 -20 12 -5 -4 -9 -1 -9 5 0 7 -7 10 -14 7 -10 -4 -13 -1 -9 9 3 8 2 14
-3 13 -30 -5 -54 3 -54 19 0 13 -2 14 -9 4 -6 -11 -9 -9 -14 7 -4 15 -10 18
-27 14 -16 -4 -21 -3 -16 5 5 8 0 12 -13 12 -11 0 -23 5 -26 10 -3 6 -13 10
-21 10 -17 0 -46 25 -38 33 3 2 -2 7 -11 11 -9 3 -14 2 -11 -3 4 -5 -3 -7 -14
-4 -11 3 -20 11 -20 19 0 7 -5 16 -12 20 -7 4 -8 3 -4 -4 4 -7 2 -12 -3 -12
-6 0 -11 4 -11 9 0 5 -9 11 -21 14 -12 3 -18 10 -15 15 3 5 -6 8 -19 6 -14 -1
-23 1 -21 4 2 4 -2 13 -10 20 -11 10 -14 10 -14 0 0 -7 -10 1 -21 17 -13 19
-19 23 -15 10 6 -19 5 -19 -8 -1 -9 10 -20 15 -27 10 -8 -5 -10 -3 -4 6 6 10
4 12 -10 6 -15 -5 -16 -4 -6 8 11 13 9 15 -9 11 -12 -2 -23 2 -26 10 -3 8 -13
11 -21 8 -10 -4 -14 -2 -10 4 9 15 -17 35 -48 37 -14 0 -25 7 -26 16 0 10 -2
11 -6 2 -2 -6 -10 -9 -15 -6 -6 4 -8 2 -4 -4 3 -6 2 -13 -4 -17 -6 -4 -8 -11
-5 -16 4 -5 1 -9 -5 -9 -6 0 -8 -4 -5 -10 3 -5 1 -10 -5 -10 -6 0 -8 -4 -5
-10 3 -5 1 -10 -5 -10 -6 0 -8 -5 -5 -10 3 -6 -1 -13 -9 -16 -9 -3 -16 -10
-16 -16 0 -5 6 -6 13 -3 6 4 2 -2 -10 -13 -14 -13 -18 -23 -12 -29 6 -6 4 -15
-7 -24 -15 -12 -17 -12 -9 0 5 10 4 12 -4 7 -6 -4 -9 -11 -6 -16 3 -4 -2 -13
-10 -20 -8 -7 -13 -16 -10 -20 3 -5 1 -11 -5 -15 -6 -4 -8 -11 -5 -16 4 -5 1
-9 -5 -9 -6 0 -8 -4 -5 -10 3 -5 2 -10 -4 -10 -6 0 -8 -7 -4 -15 3 -9 2 -15
-3 -14 -21 4 -28 -2 -14 -11 13 -8 12 -10 -4 -10 -15 0 -16 -3 -7 -14 9 -11 9
-16 0 -22 -8 -5 -9 -3 -4 6 5 9 4 11 -3 6 -7 -4 -12 -16 -12 -27 0 -11 -4 -17
-10 -14 -6 3 -7 -1 -4 -9 4 -11 0 -16 -12 -16 -15 0 -16 -2 -5 -9 10 -6 10
-10 1 -16 -6 -4 -9 -14 -6 -22 3 -8 1 -11 -4 -8 -18 11 -32 -5 -19 -21 9 -11
8 -14 -7 -14 -16 0 -17 -2 -4 -10 13 -9 7 -14 -12 -11 -4 0 -5 -6 -2 -14 4 -8
1 -15 -6 -15 -6 0 -9 -4 -6 -9 4 -5 1 -11 -6 -13 -6 -2 -13 -15 -15 -29 -2
-13 -8 -25 -13 -27 -6 -2 -10 -12 -10 -22 0 -10 -5 -22 -12 -26 -7 -5 -8 -3
-3 7 8 12 6 12 -8 0 -18 -14 -22 -22 -9 -20 21 4 22 -3 1 -22 -13 -11 -18 -18
-12 -14 9 4 11 1 7 -10 -4 -9 -13 -14 -21 -11 -11 4 -11 1 -3 -14 9 -16 8 -18
-5 -14 -9 4 -15 0 -16 -10 -3 -37 -5 -41 -23 -38 -10 2 -15 -1 -12 -7 4 -5 2
-12 -3 -15 -5 -4 -13 -1 -17 5 -5 9 -11 7 -20 -5 -8 -11 -14 -13 -19 -7 -4 7
-12 8 -24 2 -10 -6 -23 -6 -31 -1 -8 5 -18 6 -23 3 -5 -3 -6 5 -2 18 4 17 4
20 -3 10 -9 -12 -12 -12 -26 1 -8 9 -12 18 -9 22 4 3 -2 6 -13 6 -16 0 -17 2
-4 10 13 9 13 10 0 11 -8 1 -19 1 -23 0 -5 -1 -6 3 -2 9 3 6 12 7 18 3 7 -4 6
0 -2 10 -7 9 -17 14 -22 11 -5 -3 -6 3 -2 12 4 12 3 15 -5 10 -12 -7 -16 5
-13 33 2 8 -2 10 -10 5 -9 -5 -10 -2 -6 9 3 9 3 16 -1 16 -19 -3 -30 2 -36 17
-5 14 -4 15 9 4 28 -23 15 -1 -16 30 -18 16 -28 30 -24 30 4 0 1 8 -6 17 -12
14 -12 16 0 8 10 -5 12 -4 7 3 -4 7 -15 12 -24 12 -15 0 -15 2 -2 10 14 9 7
15 -14 11 -5 -1 -6 5 -3 14 4 8 2 15 -3 15 -5 0 -6 8 -3 18 6 15 4 15 -9 4
-14 -11 -16 -10 -14 12 2 14 -2 24 -8 23 -6 -1 -12 8 -14 21 -2 12 -8 22 -13
22 -5 0 -9 7 -9 15 0 8 -4 15 -9 15 -5 0 -14 13 -21 30 -7 16 -16 27 -21 24
-5 -3 -6 1 -3 9 3 8 -2 21 -10 30 -8 8 -12 17 -9 21 4 3 1 6 -6 6 -7 0 -9 5
-6 10 3 6 1 10 -4 10 -6 0 -11 7 -11 16 0 8 -4 12 -10 9 -5 -3 -10 3 -10 13 0
11 -7 23 -16 26 -9 4 -14 9 -11 12 8 9 -16 33 -27 26 -5 -3 -6 0 -2 7 6 9 11
9 23 -1 15 -12 15 -11 2 9 -8 13 -20 23 -27 23 -8 0 -12 6 -9 13 2 6 -5 17
-17 24 -12 7 -15 12 -8 13 10 0 10 3 0 14 -7 8 -17 11 -23 8 -5 -3 -3 3 5 13
13 17 13 18 -1 13 -13 -5 -16 -2 -11 14 3 12 1 19 -4 16 -5 -3 -17 5 -27 18
-16 22 -16 23 -1 17 12 -4 15 -3 10 5 -4 7 -14 12 -23 12 -13 0 -13 3 -3 16 8
8 9 14 4 13 -22 -4 -32 2 -30 19 0 9 -4 16 -11 15 -7 -2 -10 4 -6 13 3 8 -2
21 -12 28 -12 8 -15 18 -10 26 6 10 4 12 -7 7 -17 -6 -18 8 -4 33 5 8 6 12 1
8 -4 -4 -15 -2 -24 5 -14 10 -14 10 -3 -5 10 -12 10 -18 1 -24 -7 -4 -9 -3 -5
4 3 6 2 13 -3 17 -5 3 -8 14 -6 25 2 12 0 18 -6 15 -5 -4 -9 1 -9 10 0 9 -4
14 -9 10 -5 -3 -13 0 -17 6 -4 7 -3 9 4 5 6 -3 13 -2 17 4 3 5 -1 10 -10 10
-9 0 -13 5 -10 10 3 6 -1 10 -9 10 -9 0 -13 7 -11 20 2 13 -2 20 -11 20 -8 0
-13 3 -12 8 3 13 -13 52 -20 48 -4 -2 -14 3 -22 12 -13 14 -12 15 3 9 14 -5
15 -4 5 13 -7 10 -15 17 -19 14 -4 -2 -10 3 -13 12 -3 9 -2 12 5 8 6 -3 5 3
-2 14 -9 15 -17 18 -25 11 -8 -7 -15 -6 -20 2 -4 7 -3 9 3 6 24 -15 20 22 -3
38 -19 12 -23 20 -15 29 8 9 4 19 -14 36 -13 13 -22 27 -19 31 3 5 -2 9 -10 9
-8 0 -18 5 -22 12 -4 7 -3 8 4 4 7 -4 12 -3 12 3 0 5 -5 13 -10 16 -6 4 -7 12
-3 18 4 7 -2 5 -12 -3 -17 -14 -18 -13 -13 8 4 14 2 22 -7 22 -7 0 -16 7 -19
16 -6 15 -4 15 11 4 10 -8 5 -1 -10 14 -16 16 -26 34 -23 43 3 8 2 12 -2 10
-4 -3 -13 1 -20 9 -10 11 -10 14 0 14 9 0 9 3 -2 9 -8 6 -17 8 -21 5 -4 -2
-11 1 -15 7 -4 7 -3 9 4 5 6 -3 13 -2 16 3 3 5 -1 12 -10 15 -8 3 -13 10 -9
15 3 5 -4 13 -16 16 -17 6 -19 9 -8 16 8 5 9 9 3 9 -7 0 -14 9 -17 21 -4 14
-10 18 -19 13 -7 -4 -10 -4 -6 1 4 4 3 15 -4 22 -9 11 -9 17 3 24 11 7 10 9
-4 9 -11 0 -21 9 -24 20 -3 11 -9 17 -14 14 -5 -3 -9 -2 -8 3 3 20 -2 34 -10
28 -6 -3 -8 4 -6 15 2 13 -1 20 -11 20 -8 0 -13 3 -13 8 4 21 -3 32 -18 33
-15 0 -15 2 2 9 18 8 19 9 1 9 -12 1 -16 6 -12 17 3 8 2 12 -4 9 -6 -3 -10 1
-10 9 0 8 -8 19 -17 25 -10 5 -18 18 -18 28 0 10 -6 17 -14 15 -8 -2 -11 3 -8
12 4 9 0 21 -7 29 -7 7 -17 23 -20 35 -4 12 -12 22 -18 22 -6 0 -9 3 -5 6 3 4
-1 13 -9 21 -8 8 -12 18 -9 23 3 4 -6 19 -20 31 -13 13 -25 32 -25 42 0 10 -7
20 -15 23 -8 4 -15 14 -15 24 0 10 -7 21 -16 24 -9 4 -14 13 -10 22 3 8 2 13
-3 10 -5 -3 -14 8 -20 24 -5 17 -15 30 -20 30 -6 0 -10 6 -9 13 2 6 -3 11 -10
9 -6 -1 -11 1 -11 5 3 21 -2 44 -9 39 -4 -2 -9 5 -9 16 -1 12 -10 28 -19 37
-17 15 -17 15 -4 -4 13 -19 13 -19 -6 -2 -16 15 -17 19 -4 28 12 8 10 10 -9 5
-17 -3 -21 -2 -13 6 8 8 7 15 -4 25 -8 8 -12 19 -9 24 4 5 -1 6 -10 3 -10 -4
-15 -2 -13 7 2 7 -2 13 -9 14 -6 0 -15 4 -20 9 -5 5 -3 6 5 2 7 -4 12 -1 12 7
0 8 -7 18 -16 21 -10 4 -13 2 -9 -7 4 -6 -3 -1 -14 13 -11 14 -21 30 -21 37 0
6 -10 15 -21 18 -17 6 -19 9 -8 16 10 6 8 9 -10 9 -13 0 -22 3 -18 6 3 3 -5
16 -19 29 -25 23 -33 42 -12 29 7 -4 8 -3 4 4 -4 6 -14 8 -23 5 -10 -4 -14 -2
-10 4 4 6 0 13 -8 17 -8 3 -15 13 -15 21 0 9 -4 13 -10 10 -5 -3 -10 1 -10 9
0 9 -6 16 -14 16 -7 0 -20 8 -27 18 -12 15 -12 16 1 7 10 -6 9 -4 -2 6 -9 9
-14 19 -11 23 4 3 1 6 -6 6 -17 0 -41 26 -41 44 0 9 -7 16 -16 16 -9 0 -18 9
-21 20 -3 11 -9 20 -13 20 -5 0 -12 9 -15 21 -4 12 -12 18 -21 15 -7 -3 -13
-2 -11 2 4 13 -30 52 -39 44 -4 -4 -2 1 5 11 12 15 12 17 -4 10 -15 -5 -17 -3
-12 11 4 9 3 15 -1 13 -9 -6 -33 19 -25 27 4 3 -1 6 -10 6 -10 0 -17 8 -17 19
0 19 -25 35 -40 26 -5 -3 -7 6 -6 20 2 13 0 22 -4 20 -5 -3 -11 2 -14 11 -3 8
-10 13 -15 10 -5 -3 -8 2 -7 11 0 10 -5 18 -11 19 -7 1 -16 2 -19 3 -4 0 0 9
7 18 8 9 9 14 4 11 -6 -4 -17 -3 -25 3 -11 6 -12 9 -2 9 7 0 10 5 7 10 -5 8
-12 7 -22 -2 -14 -11 -15 -10 -9 10 6 17 3 22 -11 22 -15 0 -16 2 -3 10 12 8
10 10 -10 11 -14 0 -19 3 -12 6 9 3 7 10 -9 24 -12 10 -26 19 -31 19 -5 0 -6
5 -3 11 7 10 -25 40 -36 34 -3 -2 -6 2 -6 10 0 12 4 12 21 -2 20 -18 20 -17 6
2 -20 27 -32 35 -44 28 -5 -4 -7 1 -3 10 4 12 1 17 -9 17 -11 0 -15 6 -11 19
3 14 1 18 -9 14 -9 -3 -14 1 -14 12 0 10 -5 13 -12 9 -8 -5 -9 -2 -5 9 4 11 1
17 -9 17 -9 0 -12 5 -8 12 5 8 2 9 -11 4 -15 -5 -16 -4 -5 9 9 11 9 15 1 15
-7 0 -9 5 -5 12 5 7 2 9 -9 5 -8 -3 -18 0 -21 8 -3 10 0 12 11 8 8 -3 0 10
-18 29 -19 20 -38 33 -43 30 -5 -3 -6 -1 -3 5 3 5 -5 21 -18 35 -13 14 -21 29
-18 32 3 3 -6 15 -20 26 -15 12 -24 27 -20 35 3 9 -1 15 -11 15 -9 0 -16 5
-16 11 0 5 6 7 13 3 8 -5 8 -2 -2 9 -7 9 -21 17 -30 17 -14 0 -14 2 -1 10 13
9 13 10 0 11 -8 1 -18 1 -21 1 -4 -1 -5 8 -2 18 4 15 0 20 -13 20 -16 0 -17 2
-4 10 13 8 12 10 -2 10 -11 0 -18 8 -18 21 0 11 -4 17 -10 14 -5 -3 -10 1 -10
9 0 9 -4 16 -10 16 -5 0 -10 9 -10 20 0 11 -4 20 -10 20 -5 0 -10 7 -10 16 0
9 -5 12 -12 8 -8 -5 -9 -2 -5 10 5 12 0 19 -18 26 -27 10 -33 25 -12 33 9 4 9
6 -1 6 -7 1 -10 5 -7 11 3 6 -1 7 -9 4 -11 -4 -16 0 -16 14 0 23 -36 27 -44 5z
m1645 -2150 c13 -16 12 -17 -3 -4 -10 7 -18 15 -18 17 0 8 8 3 21 -13z m520
-860 c13 -16 12 -17 -3 -4 -17 13 -22 21 -14 21 2 0 10 -8 17 -17z m1416 -878
c0 -8 -4 -12 -9 -9 -5 3 -6 10 -3 15 9 13 12 11 12 -6z m904 -218 c-10 -9 -11
-8 -5 6 3 10 9 15 12 12 3 -3 0 -11 -7 -18z m744 -577 c-3 -5 -12 -10 -18 -10
-7 0 -6 4 3 10 19 12 23 12 15 0z"/>
<path d="M580 8476 c0 -2 8 -10 18 -17 15 -13 16 -12 3 4 -13 16 -21 21 -21
13z"/>
<path d="M645 8390 c3 -5 8 -10 11 -10 2 0 4 5 4 10 0 6 -5 10 -11 10 -5 0 -7
-4 -4 -10z"/>
<path d="M1037 8227 c4 -6 0 -8 -9 -5 -12 5 -13 1 -4 -28 6 -19 15 -34 19 -34
5 0 5 -4 2 -10 -4 -6 1 -7 12 -3 16 6 17 5 3 -12 -8 -10 -10 -16 -5 -14 6 3
18 -2 28 -13 9 -10 14 -18 10 -18 -5 0 -2 -4 5 -9 7 -4 14 -17 15 -29 1 -15 5
-18 13 -11 8 7 15 6 20 -2 4 -8 3 -9 -4 -5 -7 4 -12 2 -12 -3 0 -6 7 -11 17
-11 9 0 14 -3 10 -6 -3 -4 1 -13 9 -21 8 -8 12 -19 9 -24 -4 -5 -2 -9 4 -9 5
0 12 6 15 13 3 6 3 2 1 -10 -4 -14 1 -26 13 -35 10 -7 24 -23 31 -36 7 -12 16
-20 22 -17 13 9 11 -9 -2 -22 -9 -9 -6 -11 12 -7 17 4 20 3 10 -4 -11 -8 -9
-11 8 -17 18 -5 26 -21 23 -46 -1 -4 8 -4 20 -1 14 3 19 1 14 -6 -4 -8 0 -12
11 -12 15 0 16 -2 3 -10 -13 -9 -13 -10 0 -11 8 -1 19 -1 24 0 5 1 3 -6 -5
-15 -9 -12 -9 -15 -1 -10 6 4 12 2 12 -3 0 -6 6 -10 13 -9 7 2 12 -8 11 -24 0
-20 3 -25 12 -17 8 7 15 6 20 -2 4 -8 3 -9 -4 -5 -7 4 -12 2 -12 -3 0 -10 14
-15 33 -12 4 1 2 -9 -4 -21 -11 -21 -11 -22 5 -9 14 12 16 12 10 -4 -6 -15 -3
-16 17 -10 20 6 22 5 12 -6 -7 -7 -13 -17 -13 -21 0 -4 6 -7 13 -6 6 2 11 -3
9 -11 -2 -11 0 -12 11 -3 11 10 13 6 12 -19 -1 -21 1 -27 9 -19 16 16 24 12
20 -12 -2 -13 -2 -17 2 -10 3 6 10 9 15 6 6 -4 6 -11 -1 -19 -9 -11 -6 -13 12
-9 13 2 17 2 11 -2 -7 -3 -13 -10 -13 -15 0 -5 6 -8 13 -6 6 1 11 -5 9 -13 -3
-12 -1 -13 9 -2 7 6 18 12 23 12 6 0 5 -4 -3 -9 -9 -6 -11 -16 -7 -27 7 -18 8
-18 22 1 14 19 14 19 12 -5 -2 -17 1 -24 11 -22 8 2 11 -3 8 -12 -4 -10 -1
-13 8 -10 10 4 12 0 8 -15 -3 -13 -1 -21 6 -21 7 0 9 6 6 13 -4 6 0 4 8 -5 8
-10 18 -14 23 -10 4 4 2 -2 -6 -12 -10 -13 -10 -17 -2 -12 6 4 12 2 12 -3 0
-6 6 -11 13 -11 15 0 47 -31 47 -44 0 -5 -9 2 -21 15 l-20 24 17 -27 c9 -16
23 -28 30 -28 8 0 14 -5 14 -11 0 -5 5 -7 10 -4 6 4 10 -6 11 -22 0 -15 3 -22
6 -15 6 15 39 -18 49 -51 5 -15 8 -17 15 -6 7 11 9 10 9 -4 0 -10 5 -15 11
-12 6 4 9 0 7 -11 -2 -10 3 -19 10 -20 6 -1 16 -2 22 -3 5 0 9 -4 9 -8 -4 -23
3 -31 21 -28 18 3 19 1 9 -18 -7 -12 -8 -19 -4 -15 5 4 15 2 24 -5 14 -11 15
-10 1 8 -14 19 -14 19 2 6 10 -7 16 -16 14 -20 -6 -10 21 -31 30 -23 4 4 5 0
1 -10 -3 -10 3 -23 15 -35 12 -10 18 -12 14 -5 -4 6 -2 12 3 12 6 0 11 -7 11
-16 0 -8 5 -12 10 -9 9 6 15 -8 11 -29 -1 -5 5 -3 14 4 13 11 14 10 9 -5 -5
-13 -4 -16 4 -11 7 4 12 1 12 -9 0 -9 5 -13 10 -10 6 3 10 0 10 -9 0 -8 -6
-17 -12 -20 -9 -4 -8 -5 2 -5 30 2 41 -1 35 -11 -4 -6 -3 -10 2 -9 19 3 33 -2
33 -12 0 -5 -5 -7 -12 -3 -7 4 -8 3 -4 -4 4 -6 13 -9 21 -5 18 6 20 -13 3 -21
-7 -3 -2 -3 11 0 19 5 23 3 18 -9 -8 -21 3 -29 20 -15 11 9 12 7 7 -7 -6 -13
-4 -16 5 -10 10 6 11 2 6 -16 -5 -19 -4 -21 4 -9 10 13 12 13 20 0 5 -8 7 -19
3 -25 -3 -5 2 -4 11 4 15 12 17 12 11 -4 -6 -14 -3 -16 17 -10 17 4 20 3 10
-3 -11 -8 -9 -11 8 -17 11 -3 21 -13 21 -21 0 -8 5 -14 11 -14 5 0 7 -6 3 -12
-5 -8 0 -7 11 2 11 9 16 10 11 3 -4 -7 -4 -13 1 -13 4 0 20 -11 35 -23 21 -19
25 -26 15 -36 -9 -10 -8 -11 6 -5 12 4 24 -1 36 -15 10 -11 21 -17 25 -14 4 4
4 0 1 -9 -4 -9 -1 -19 6 -24 7 -4 10 -3 5 4 -3 6 -1 14 5 18 7 4 9 3 5 -4 -8
-13 22 -44 35 -37 5 4 9 -1 9 -10 0 -10 -5 -13 -12 -9 -7 4 -8 3 -4 -4 5 -8
13 -9 26 -2 15 8 17 6 13 -13 -4 -18 -3 -19 6 -7 10 13 11 13 12 0 1 -8 1 -19
0 -23 -1 -5 2 -7 6 -4 11 5 43 -30 35 -39 -4 -3 4 -1 17 6 13 6 21 8 18 3 -9
-14 7 -33 33 -38 12 -2 25 -7 29 -11 3 -4 -1 -5 -10 -2 -9 4 -16 1 -16 -8 0
-8 3 -12 5 -9 3 3 11 0 19 -7 8 -6 13 -7 11 -2 -2 5 2 10 7 11 6 1 8 -7 7 -19
-3 -17 0 -20 17 -15 12 3 21 2 21 -1 1 -4 12 -20 26 -37 13 -16 22 -22 18 -12
-3 9 -2 17 4 17 6 0 9 -11 8 -24 -2 -19 1 -23 18 -19 18 4 19 3 6 -7 -13 -10
-11 -11 7 -7 15 3 20 1 16 -9 -5 -13 14 -19 40 -15 5 1 6 -3 3 -8 -4 -5 0 -12
6 -14 10 -4 9 -8 -2 -17 -13 -10 -13 -11 3 -6 19 6 49 -3 43 -13 -3 -4 -1 -13
5 -21 7 -12 9 -12 9 -1 0 8 9 2 21 -13 16 -20 24 -24 34 -16 11 9 12 6 8 -12
-4 -18 -2 -20 6 -8 8 12 11 11 18 -7 8 -21 11 -23 32 -23 5 0 12 -9 16 -19 4
-12 12 -18 21 -14 7 3 14 0 14 -7 0 -6 5 -8 10 -5 6 3 10 -1 10 -9 0 -9 7 -16
15 -16 8 0 15 -5 15 -11 0 -5 -6 -7 -12 -3 -8 4 -10 3 -5 -2 9 -9 14 -11 47
-13 11 0 20 -8 20 -16 0 -13 4 -14 21 -4 13 7 19 7 15 1 -4 -6 2 -15 11 -21
10 -6 13 -11 8 -11 -6 0 -16 5 -23 12 -9 9 -12 9 -12 0 0 -7 13 -15 30 -18 17
-4 30 -13 30 -20 0 -13 12 -18 33 -15 4 0 7 -4 7 -10 0 -5 4 -7 10 -4 5 3 10
2 10 -4 0 -5 -5 -11 -12 -13 -7 -3 -5 -7 6 -11 10 -4 15 -3 11 3 -9 15 5 12
22 -5 8 -8 19 -12 25 -9 7 5 8 2 3 -6 -6 -10 -4 -12 10 -6 16 6 16 4 4 -11 -8
-9 -9 -14 -2 -10 7 4 16 0 22 -10 7 -13 10 -14 11 -4 0 11 4 11 18 -2 10 -10
22 -14 26 -10 4 4 4 0 1 -9 -4 -9 0 -18 10 -22 9 -3 14 -2 11 2 -3 5 1 9 8 9
8 0 11 -8 8 -20 -4 -16 -1 -19 11 -14 10 4 26 -2 40 -16 17 -16 17 -18 2 -7
-16 12 -15 9 4 -13 24 -27 38 -36 26 -17 -3 6 -1 10 4 10 6 0 11 -5 11 -11 0
-5 5 -7 10 -4 6 3 10 -1 10 -9 0 -9 3 -15 8 -15 24 4 42 -2 36 -13 -5 -7 -2
-9 9 -5 11 4 14 2 10 -9 -4 -10 1 -13 18 -12 16 2 27 -4 33 -18 5 -12 19 -27
30 -34 l21 -13 -20 23 -20 23 22 -14 c12 -7 26 -22 32 -34 5 -11 10 -14 10 -6
1 7 14 -1 31 -19 26 -28 43 -31 23 -4 -5 5 -1 2 8 -8 9 -9 20 -14 24 -10 5 4
5 -1 2 -10 -3 -10 -3 -17 1 -17 21 4 42 -2 38 -10 -3 -5 1 -12 10 -15 9 -3 12
-2 8 5 -3 6 8 4 24 -5 17 -9 34 -20 37 -26 4 -6 10 -8 15 -5 5 3 12 0 16 -6 4
-8 3 -9 -4 -5 -7 4 -12 2 -12 -4 0 -6 10 -10 22 -8 12 2 23 -3 25 -12 4 -13 3
-13 -7 0 -10 13 -11 13 -7 0 2 -9 13 -14 29 -12 15 2 30 -4 38 -15 12 -15 12
-16 0 -5 -17 15 -30 16 -30 1 0 -5 4 -8 9 -4 5 3 13 0 16 -6 4 -5 13 -8 21 -5
9 3 14 -1 14 -12 0 -15 2 -15 10 -2 8 12 10 12 10 1 0 -9 7 -11 21 -8 16 4 18
3 8 -9 -9 -11 -8 -14 5 -14 9 0 16 -6 16 -12 0 -9 4 -8 10 2 7 12 10 12 10 1
0 -7 6 -11 14 -8 8 3 22 -4 33 -15 10 -12 13 -18 6 -15 -6 4 -14 3 -17 -2 -7
-11 13 -9 33 3 10 7 12 6 6 -4 -6 -10 -4 -12 8 -7 9 3 16 3 16 -1 -3 -19 2
-23 16 -12 12 10 14 8 10 -9 -3 -18 -1 -20 16 -11 10 6 20 8 20 5 1 -3 2 -9 3
-13 2 -12 36 -45 36 -35 0 5 -3 13 -7 19 -5 5 0 0 11 -11 10 -11 25 -19 33
-17 9 2 12 -1 8 -7 -3 -7 2 -11 14 -11 12 0 21 -6 21 -12 0 -9 4 -8 10 2 7 11
10 11 10 2 0 -7 4 -10 10 -7 6 3 7 -1 4 -10 -5 -11 -2 -14 11 -9 10 4 22 -1
31 -15 8 -11 20 -21 26 -21 7 0 4 6 -6 13 -16 12 -16 14 -2 14 8 0 18 -9 22
-19 3 -10 10 -18 15 -18 6 0 7 5 3 12 -4 7 -3 8 4 4 7 -4 12 -15 13 -24 0 -10
3 -12 6 -5 3 10 8 9 20 -2 8 -8 23 -15 33 -15 10 0 22 -4 25 -10 4 -6 -1 -7
-12 -4 -15 5 -15 4 -3 -4 10 -8 18 -8 27 0 11 8 12 7 7 -7 -5 -13 -4 -16 4
-11 7 4 12 3 12 -1 0 -5 10 -10 22 -10 13 -1 24 -7 26 -13 2 -5 11 -10 19 -10
9 0 22 -8 30 -17 8 -10 12 -12 8 -5 -10 19 2 14 26 -10 12 -13 19 -18 15 -11
-3 6 -2 14 3 17 5 4 11 -4 13 -16 2 -16 9 -22 21 -20 10 2 26 -3 35 -10 13
-11 14 -11 8 0 -7 11 -4 12 13 3 11 -7 21 -17 21 -23 0 -5 9 -8 20 -5 10 3 19
2 18 -2 -2 -18 4 -22 18 -11 13 11 16 10 21 -9 4 -16 10 -20 25 -15 14 4 18 2
14 -5 -4 -6 0 -11 9 -11 10 0 13 5 9 12 -4 7 -3 8 5 4 6 -4 9 -12 6 -17 -4 -5
1 -9 10 -9 10 0 13 -5 9 -12 -5 -9 -2 -9 9 1 17 13 22 8 19 -20 -1 -3 6 -6 13
-6 11 0 12 4 3 14 -8 11 -7 12 6 7 9 -3 16 -10 16 -15 0 -5 11 -9 25 -9 14 0
25 -4 25 -10 0 -5 9 -10 20 -10 11 0 20 -4 20 -9 0 -5 7 -12 16 -15 15 -6 15
-4 3 11 -13 17 -13 17 7 0 13 -10 29 -15 40 -11 16 5 16 4 4 -5 -11 -8 -12
-11 -2 -11 7 0 11 -4 8 -8 -3 -5 1 -9 9 -9 8 0 12 4 9 9 -3 4 2 5 10 2 8 -3
13 -11 10 -18 -3 -7 2 -13 10 -13 8 0 12 5 9 10 -3 5 0 7 8 5 8 -3 13 -10 12
-16 -1 -5 5 -16 14 -24 9 -7 14 -8 10 -2 -4 7 0 14 8 18 8 3 17 0 21 -6 5 -7
2 -8 -6 -3 -9 5 -11 4 -6 -4 4 -6 11 -9 16 -6 12 8 70 -16 70 -28 0 -7 5 -5
10 3 5 8 10 10 10 4 0 -7 7 -15 16 -18 12 -5 14 -3 8 7 -5 7 -1 4 8 -6 10 -10
23 -17 30 -15 7 3 21 -5 31 -16 10 -12 16 -15 12 -8 -9 18 22 15 32 -3 5 -8
21 -16 36 -17 15 -1 27 -6 27 -11 0 -5 7 -4 15 3 13 11 14 10 9 -5 -6 -15 -4
-16 13 -7 15 9 20 8 20 -3 0 -8 -5 -11 -11 -8 -6 3 -7 2 -3 -2 10 -12 39 -16
32 -5 -3 5 0 12 6 16 7 4 9 3 6 -2 -3 -6 -2 -16 4 -24 5 -8 9 -10 9 -4 0 6 6
11 14 11 8 0 12 -6 9 -14 -4 -9 0 -11 13 -6 13 5 15 3 9 -8 -8 -12 -6 -12 8 0
9 7 17 9 17 5 0 -5 9 -15 21 -22 15 -10 19 -10 14 -1 -5 7 -3 10 6 7 8 -3 13
-11 12 -17 -2 -6 2 -11 8 -11 6 0 8 9 3 23 -6 20 -4 19 15 -5 18 -23 26 -26
41 -18 24 13 40 13 20 0 -11 -7 -11 -10 -2 -10 8 0 10 -5 6 -12 -4 -7 2 -5 13
5 14 12 23 15 28 7 3 -5 11 -7 17 -4 6 4 8 2 5 -3 -4 -6 3 -13 14 -16 13 -4
18 -10 13 -18 -4 -8 -3 -10 5 -5 6 4 9 11 6 16 -3 5 0 12 6 16 7 4 9 3 6 -3
-4 -6 1 -17 10 -24 10 -8 14 -9 10 -2 -4 6 -3 14 3 18 9 6 14 -8 11 -28 -1 -5
3 -5 9 -2 6 4 9 14 5 22 -4 13 -3 13 8 4 11 -9 17 -8 26 2 6 8 7 18 3 22 -4 5
2 5 12 1 16 -5 17 -4 7 8 -11 13 -9 15 8 11 12 -2 20 1 18 8 -1 7 3 11 10 10
7 -2 10 6 8 17 -2 11 1 23 7 26 7 4 8 2 4 -4 -4 -7 -2 -12 3 -12 6 0 11 5 11
11 0 5 4 8 9 5 5 -3 12 6 16 21 5 22 8 24 17 12 7 -11 9 -9 5 8 -4 16 -1 20
11 16 10 -4 13 -2 8 5 -4 7 -3 12 3 12 5 0 12 -6 15 -12 3 -7 3 1 0 17 -4 23
-3 27 5 15 8 -11 11 -12 11 -2 0 7 5 10 10 7 6 -4 9 -1 8 6 -2 7 2 13 9 14 6
0 15 4 20 9 5 5 2 6 -7 2 -9 -5 -8 -2 2 7 10 8 14 18 10 22 -4 5 1 5 11 2 12
-5 16 -3 11 5 -5 8 -2 9 11 4 16 -6 16 -4 4 11 -9 11 -10 14 -1 9 6 -4 12 -2
12 3 0 6 5 11 11 11 15 0 39 26 32 34 -6 5 11 10 29 7 4 0 5 9 3 20 -4 17 -2
19 11 8 12 -10 13 -9 8 5 -5 13 -2 15 12 9 17 -6 18 -5 4 12 -8 10 -10 16 -5
13 13 -8 39 11 48 35 4 9 17 21 30 26 12 5 29 17 37 27 14 18 13 18 -8 0 -12
-11 -25 -16 -29 -13 -3 4 -1 7 6 7 7 0 9 5 6 10 -4 6 -3 9 2 8 13 -5 54 28 45
37 -4 4 4 2 18 -5 22 -12 24 -12 12 3 -11 13 -10 17 5 25 10 5 25 7 33 5 9 -3
7 1 -5 10 -20 16 -20 16 3 12 20 -4 27 5 23 29 -1 5 6 3 15 -5 16 -13 16 -12
4 11 -7 14 -9 22 -5 18 5 -4 15 -2 24 5 14 11 15 10 2 -8 -8 -11 3 -1 26 22
22 23 42 41 44 40 3 -1 -1 3 -8 9 -9 8 -7 13 5 22 14 10 15 11 1 6 -12 -4 -16
1 -15 18 1 13 6 29 10 37 6 10 5 12 -2 7 -11 -7 -17 6 -13 28 1 5 -3 12 -9 16
-8 5 -6 9 5 13 10 5 14 3 9 -5 -4 -7 -3 -8 4 -4 9 5 9 12 0 26 -7 10 -17 16
-23 12 -5 -3 -4 2 4 11 7 9 9 17 3 17 -15 0 -23 28 -10 36 6 4 8 3 4 -4 -3 -6
-2 -13 3 -16 5 -4 8 2 6 11 -2 10 -4 22 -4 26 -1 5 -5 6 -10 2 -5 -3 -13 0
-17 6 -4 8 -3 9 4 5 8 -5 12 1 12 14 0 14 -4 19 -12 15 -7 -4 -4 1 6 9 18 15
13 21 -15 18 -4 -1 -5 14 -3 34 1 19 0 32 -4 30 -5 -3 -8 6 -8 19 0 13 4 21 8
19 5 -3 5 -10 2 -16 -4 -7 -2 -8 4 -4 12 7 5 36 -8 36 -4 0 -7 11 -7 25 0 15
4 22 11 19 6 -3 3 1 -6 9 -18 15 -25 33 -9 23 5 -4 7 3 4 14 -3 11 -9 17 -14
14 -5 -3 -9 -1 -9 5 0 5 6 11 13 14 8 3 6 10 -7 23 -19 19 -20 19 -5 0 10 -14
10 -18 1 -12 -7 4 -18 19 -23 33 -9 24 -11 25 -27 9 -14 -12 -21 -13 -30 -4
-14 14 -61 17 -86 5 -12 -6 -16 -5 -12 1 3 6 2 13 -3 16 -5 4 -12 2 -16 -4 -3
-5 -11 -10 -16 -10 -6 0 -7 5 -4 10 3 6 1 10 -4 10 -6 0 -11 -6 -11 -12 0 -10
-3 -9 -9 1 -6 9 -11 10 -15 2 -4 -6 -13 -11 -19 -11 -8 0 -8 3 2 9 9 6 4 10
-18 13 -18 3 -35 0 -38 -5 -4 -6 -1 -7 7 -2 9 5 11 4 6 -4 -6 -9 -11 -9 -21
-1 -7 6 -37 13 -67 15 -71 4 -70 4 -65 13 3 4 -8 7 -24 8 -26 1 -27 0 -11 -13
15 -12 13 -12 -10 -2 -16 7 -28 17 -28 23 0 6 -4 5 -9 -3 -8 -12 -14 -13 -36
-3 -15 7 -24 8 -20 2 3 -5 1 -10 -4 -10 -6 0 -11 5 -11 12 0 9 -3 9 -12 0 -16
-16 -33 -15 -20 1 8 9 5 12 -13 12 -13 0 -21 -3 -19 -7 2 -4 -1 -10 -7 -14 -8
-4 -9 -3 -5 4 4 7 2 12 -4 12 -6 0 -8 6 -5 13 4 6 -1 3 -9 -7 -14 -18 -20 -15
-17 6 0 4 -9 5 -22 2 -12 -3 -29 -7 -37 -8 -8 -2 -20 1 -26 6 -7 5 -21 11 -32
13 -16 3 -20 0 -15 -13 3 -10 1 -13 -4 -7 -4 6 -18 15 -29 22 -17 9 -24 8 -37
-5 -15 -14 -17 -14 -23 1 -3 9 -13 17 -21 17 -8 0 -12 -4 -9 -8 3 -5 -1 -9 -9
-9 -8 0 -12 4 -8 9 3 6 -3 9 -13 8 -34 -4 -45 0 -38 12 4 7 3 8 -5 4 -6 -4
-20 -2 -29 6 -15 12 -16 11 -3 -4 15 -20 2 -25 -17 -6 -13 13 -54 19 -46 6 3
-4 -2 -5 -10 -2 -9 3 -16 11 -16 16 0 7 -5 6 -13 -1 -10 -8 -17 -7 -25 1 -7 7
-12 8 -12 3 0 -4 -9 0 -20 10 -18 17 -20 17 -14 2 8 -21 0 -22 -20 -1 -9 8
-16 11 -16 5 0 -19 -20 -12 -21 7 0 10 -3 12 -6 5 -3 -10 -10 -10 -25 -2 -13
7 -18 7 -14 1 3 -6 -2 -9 -11 -7 -10 2 -22 4 -26 4 -5 1 -5 6 -2 11 9 14 -8
13 -23 -2 -8 -8 -12 -8 -12 -1 0 6 -7 14 -16 17 -8 3 -13 2 -10 -2 6 -10 -42
-8 -51 3 -5 4 -3 5 4 1 6 -3 14 -3 17 2 3 5 -17 8 -44 8 -41 -1 -47 1 -37 13
10 12 9 13 -10 2 -13 -6 -23 -8 -23 -4 0 13 -64 13 -73 0 -5 -7 -6 -4 -2 10 6
22 -7 26 -33 10 -7 -5 -14 -2 -18 6 -4 12 -12 13 -36 7 -27 -8 -29 -8 -17 8 7
9 10 14 5 10 -4 -4 -19 -3 -32 2 -17 7 -24 6 -24 -3 -1 -7 -6 -5 -14 5 -9 13
-16 14 -24 6 -8 -8 -15 -8 -25 0 -8 7 -30 13 -49 14 -20 2 -34 6 -31 11 2 4
-5 7 -16 7 -12 0 -21 6 -21 13 0 8 -4 7 -10 -3 -8 -13 -10 -13 -10 2 0 10 -7
16 -19 15 -11 0 -17 -5 -14 -10 3 -5 -4 -4 -16 3 -12 6 -18 16 -15 22 4 7 3 8
-5 4 -6 -4 -9 -11 -7 -15 3 -4 -1 -8 -9 -8 -8 0 -12 4 -9 9 4 5 0 9 -7 7 -27
-3 -40 1 -34 11 6 10 -1 12 -42 13 -13 0 -23 4 -23 10 0 5 -7 4 -15 -3 -14
-11 -19 -7 -16 12 0 4 -7 4 -16 1 -12 -5 -14 -3 -8 8 6 11 5 12 -6 2 -19 -18
-32 -16 -25 5 5 14 4 14 -9 -2 -8 -11 -15 -14 -15 -7 0 7 -6 9 -12 6 -7 -4 -4
1 7 11 l20 17 -20 -8 c-33 -12 -50 -11 -47 3 2 10 -2 10 -17 3 -14 -8 -23 -6
-36 9 -10 11 -20 18 -23 15 -3 -3 -12 1 -21 8 -14 11 -14 10 -2 -5 7 -10 17
-16 21 -13 5 3 11 1 14 -4 9 -15 -23 -6 -43 11 -15 12 -22 13 -31 5 -10 -9
-11 -9 -5 2 6 11 3 13 -13 9 -14 -4 -19 -2 -16 6 3 9 -8 12 -39 12 -35 -1 -43
2 -39 13 4 11 1 13 -12 8 -14 -6 -17 -3 -12 9 5 14 4 15 -9 4 -9 -7 -15 -8
-15 -2 0 6 -11 9 -25 8 -13 -2 -22 0 -20 5 7 10 -32 22 -44 15 -5 -4 -17 1
-26 10 -8 9 -24 14 -35 11 -11 -3 -18 -2 -17 2 1 3 -1 6 -4 6 -3 0 -14 7 -24
15 -11 9 -16 10 -11 3 4 -7 2 -13 -3 -13 -6 0 -11 6 -11 14 0 8 -7 16 -14 19
-10 4 -13 1 -9 -9 4 -10 0 -12 -11 -8 -9 3 -13 11 -10 16 4 6 -2 7 -16 3 -18
-6 -22 -4 -17 8 4 11 0 13 -15 9 -14 -3 -19 -1 -15 6 10 14 -13 21 -40 11 -18
-7 -21 -5 -16 8 5 13 3 14 -18 3 -23 -13 -23 -12 -9 5 14 17 14 18 -9 5 -21
-11 -23 -10 -18 3 4 12 2 14 -11 10 -15 -6 -15 -5 -3 10 9 11 10 17 2 17 -6 0
-11 -4 -11 -9 0 -5 -12 -8 -27 -6 -17 2 -27 8 -25 16 3 10 0 10 -12 -1 -12 -9
-16 -9 -16 -1 0 7 -5 9 -12 5 -7 -4 -8 -3 -4 4 5 8 -2 12 -18 12 -14 0 -26 5
-26 11 0 8 -5 7 -15 -1 -13 -11 -14 -10 -9 4 5 12 2 15 -10 10 -17 -7 -49 19
-38 31 4 5 0 4 -8 -1 -8 -4 -21 -9 -28 -10 -10 -2 -11 1 -1 12 6 8 9 17 5 21
-3 3 -6 2 -6 -4 0 -5 -7 -10 -15 -10 -8 0 -15 4 -15 8 0 4 -7 10 -16 13 -15 6
-15 4 -3 -11 12 -15 12 -16 -1 -8 -8 6 -19 10 -25 10 -5 0 -12 11 -14 25 -3
23 -4 24 -12 5 l-8 -20 -1 20 -1 20 -9 -20 c-7 -17 -9 -17 -9 -2 -1 9 -6 17
-12 17 -5 0 -7 6 -3 13 5 8 2 8 -9 -2 -11 -9 -17 -10 -17 -2 0 6 -6 10 -12 9
-7 -2 -11 4 -10 12 2 8 0 12 -3 8 -4 -4 -22 0 -39 9 -30 16 -30 15 -16 -3 12
-15 9 -14 -17 4 -17 12 -35 21 -40 20 -14 -4 -54 22 -48 32 3 4 -6 7 -19 6
-14 -2 -27 3 -30 11 -3 8 -10 11 -16 8 -5 -3 -10 -1 -10 4 0 6 -5 11 -11 11
-5 0 -8 -4 -5 -8 3 -5 -2 -9 -10 -9 -10 0 -11 4 -4 11 15 15 12 30 -4 17 -11
-9 -16 -9 -22 0 -4 8 -3 9 4 5 7 -4 12 -2 12 4 0 6 -10 8 -24 4 -14 -3 -27 -1
-31 7 -6 8 -4 10 5 4 8 -5 11 -4 6 3 -4 6 -14 8 -23 5 -12 -5 -14 -3 -8 8 7
11 5 11 -10 -1 -11 -9 -16 -10 -11 -2 4 7 2 12 -4 12 -6 0 -9 4 -6 8 3 5 -1 9
-9 9 -8 0 -12 -4 -9 -9 3 -4 0 -8 -5 -8 -6 0 -11 8 -11 18 0 14 -2 15 -10 2
-8 -13 -10 -13 -10 1 0 9 -7 20 -16 23 -10 4 -13 2 -8 -6 4 -7 3 -8 -4 -4 -7
4 -12 13 -12 21 0 8 -4 16 -9 19 -5 4 -7 -4 -4 -16 l4 -23 -13 23 c-8 12 -17
20 -21 16 -3 -4 -9 1 -13 10 -5 14 -9 14 -22 4 -12 -10 -14 -10 -8 0 5 8 0 12
-13 12 -12 0 -21 7 -21 15 0 8 -6 12 -14 9 -8 -3 -17 0 -22 7 -5 8 -3 10 6 4
8 -5 11 -4 6 3 -4 6 -13 9 -22 5 -8 -3 -23 2 -33 11 -10 9 -20 13 -23 10 -4
-3 -9 4 -13 15 -6 21 -16 25 -44 21 -9 -1 -12 4 -7 15 3 9 2 14 -4 10 -14 -9
-51 5 -44 16 3 6 -5 8 -21 5 -22 -4 -25 -3 -15 9 10 12 8 13 -9 10 -23 -4 -29
10 -8 19 6 3 -1 2 -17 -1 -22 -5 -27 -3 -21 7 6 10 3 12 -13 8 -16 -4 -19 -2
-15 10 4 10 2 13 -5 8 -7 -4 -15 0 -18 9 -4 11 -10 12 -18 6 -8 -7 -24 0 -50
24 -22 19 -44 31 -50 28 -6 -4 -5 1 3 10 12 15 12 17 -4 11 -14 -6 -16 -4 -10
7 8 12 6 12 -8 0 -11 -9 -17 -10 -17 -2 0 6 -3 10 -7 9 -16 -3 -43 15 -43 28
0 8 -9 14 -20 14 -12 0 -20 7 -20 18 0 14 -2 15 -10 2 -8 -13 -10 -12 -10 3 0
9 -7 17 -16 17 -9 0 -22 7 -28 15 -6 9 -21 17 -33 18 -18 1 -20 4 -10 16 10
12 9 14 -5 8 -10 -3 -20 -2 -23 4 -4 5 -10 7 -14 4 -5 -2 -13 7 -20 21 -8 19
-17 25 -31 21 -13 -3 -18 -1 -13 6 4 6 0 8 -10 4 -12 -4 -14 -2 -10 10 5 13 2
15 -11 10 -10 -4 -15 -3 -11 3 3 6 0 10 -8 10 -8 0 -20 7 -27 15 -6 8 -17 13
-23 12 -7 -1 -11 4 -9 12 2 9 -3 11 -14 7 -15 -6 -15 -4 -3 11 7 10 9 15 4 10
-4 -4 -20 3 -33 15 -14 13 -22 18 -18 11 3 -6 2 -15 -4 -18 -6 -4 -9 -1 -8 7
2 7 -3 12 -9 11 -7 -2 -13 4 -13 13 0 9 5 12 13 8 7 -4 8 -3 4 2 -5 5 -16 9
-25 9 -9 0 -17 7 -16 16 1 11 -6 14 -28 11 -21 -3 -28 -1 -26 9 2 8 -4 13 -14
13 -11 -1 -14 4 -10 14 4 11 1 14 -11 9 -8 -3 -21 1 -28 9 -10 12 -9 13 6 8
13 -5 16 -4 11 5 -5 7 -17 11 -27 8 -11 -3 -17 -1 -13 4 3 5 0 17 -6 26 -10
16 -11 16 -6 1 3 -12 1 -15 -9 -11 -8 3 -12 9 -9 14 3 5 -3 9 -13 9 -10 0 -27
13 -37 28 l-19 27 29 -25 29 -25 -24 27 c-13 15 -29 24 -37 21 -9 -3 -14 2
-14 13 0 15 -2 16 -9 5 -7 -11 -10 -9 -16 8 -3 11 -13 21 -21 21 -8 0 -14 4
-14 9 0 5 -13 14 -30 21 -20 8 -30 20 -30 34 0 16 -2 18 -9 7 -7 -11 -10 -9
-16 8 -6 19 -16 25 -37 22 -4 0 -10 8 -13 19 -4 11 -11 18 -16 15 -5 -4 -9 2
-9 12 0 15 -2 16 -10 3 -8 -12 -10 -11 -10 8 0 15 -6 22 -20 22 -11 0 -20 7
-20 15 0 9 -6 12 -17 8 -10 -3 -15 -3 -11 2 4 4 0 14 -8 22 -8 8 -12 18 -10
22 3 4 -1 8 -9 8 -12 0 -12 -3 -2 -16 11 -14 10 -14 -5 -2 -10 7 -18 20 -18
27 0 8 -7 14 -16 14 -11 0 -14 5 -10 16 5 12 1 14 -15 9 -13 -5 -19 -3 -15 3
8 13 -33 64 -45 57 -8 -5 -13 7 -11 26 1 4 -8 5 -18 2 -16 -4 -19 -2 -14 13 4
11 4 16 -1 12 -4 -4 -13 -2 -20 5 -7 7 -22 19 -34 27 -15 10 -17 16 -8 22 8 5
4 8 -12 8 -18 0 -22 4 -18 20 4 17 2 18 -14 9 -11 -6 -17 -15 -13 -22 4 -7 3
-8 -1 -4 -12 10 -15 38 -4 31 18 -11 8 7 -18 34 -15 15 -20 18 -12 7 13 -18
12 -19 -2 -8 -9 7 -19 10 -23 6 -4 -4 -3 4 2 18 8 20 7 26 -3 26 -8 0 -11 -5
-8 -10z m263 -259 c0 -5 -7 -3 -15 6 -8 8 -15 18 -15 22 0 3 7 1 15 -6 8 -7
15 -17 15 -22z m950 -758 c0 -5 -2 -10 -4 -10 -3 0 -8 5 -11 10 -3 6 -1 10 4
10 6 0 11 -4 11 -10z m-140 -280 c0 -5 -2 -10 -4 -10 -3 0 -8 5 -11 10 -3 6
-1 10 4 10 6 0 11 -4 11 -10z m655 -600 c3 -6 -1 -7 -9 -4 -18 7 -21 14 -7 14
6 0 13 -4 16 -10z m400 -328 c-3 -3 -11 0 -18 7 -9 10 -8 11 6 5 10 -3 15 -9
12 -12z m3145 -1686 c0 -2 -7 -7 -16 -10 -8 -3 -12 -2 -9 4 6 10 25 14 25 6z"/>
<path d="M5303 7955 c0 -8 4 -12 9 -9 5 3 6 10 3 15 -9 13 -12 11 -12 -6z"/>
<path d="M1098 7423 c7 -3 16 -2 19 1 4 3 -2 6 -13 5 -11 0 -14 -3 -6 -6z"/>
<path d="M2147 7289 c7 -7 15 -10 18 -7 3 3 -2 9 -12 12 -14 6 -15 5 -6 -5z"/>
<path d="M2480 7066 c0 -2 7 -9 15 -16 9 -7 15 -8 15 -2 0 5 -7 12 -15 16 -8
3 -15 4 -15 2z"/>
<path d="M2620 6976 c0 -2 8 -10 18 -17 15 -13 16 -12 3 4 -13 16 -21 21 -21
13z"/>
<path d="M2955 6780 c3 -5 8 -10 11 -10 2 0 4 5 4 10 0 6 -5 10 -11 10 -5 0
-7 -4 -4 -10z"/>
<path d="M3487 6509 c7 -7 15 -10 18 -7 3 3 -2 9 -12 12 -14 6 -15 5 -6 -5z"/>
<path d="M2900 6190 c0 -5 5 -10 11 -10 5 0 7 5 4 10 -3 6 -8 10 -11 10 -2 0
-4 -4 -4 -10z"/>
<path d="M7316 6085 c-3 -8 -1 -15 4 -15 6 0 10 7 10 15 0 8 -2 15 -4 15 -2 0
-6 -7 -10 -15z"/>
<path d="M7340 6068 c0 -4 -6 -8 -14 -8 -8 0 -18 -4 -21 -10 -3 -5 0 -7 9 -4
15 6 17 -11 3 -33 -5 -8 -4 -13 2 -13 6 0 11 -16 11 -35 0 -19 4 -35 8 -35 5
0 9 -7 9 -15 0 -8 -4 -15 -9 -15 -4 0 -8 -5 -8 -11 0 -6 7 -8 16 -5 9 3 12 2
9 -5 -12 -18 -13 -59 -2 -66 6 -4 7 -1 2 8 -7 12 -5 12 6 1 12 -11 12 -14 0
-21 -11 -7 -11 -10 0 -15 11 -4 11 -7 2 -12 -10 -4 -10 -8 0 -19 7 -7 15 -11
18 -9 8 5 5 -29 -5 -44 -4 -7 -2 -12 4 -12 6 0 8 -5 3 -12 -11 -19 -13 -39 -2
-32 5 3 6 10 3 16 -4 6 -2 8 4 4 7 -4 8 -17 2 -37 -7 -24 -6 -28 3 -20 9 7 13
5 13 -8 0 -12 -6 -17 -16 -14 -10 3 -9 0 3 -7 15 -10 16 -14 5 -28 -10 -12
-10 -14 0 -8 8 5 12 0 12 -16 0 -13 6 -30 13 -37 10 -11 10 -13 0 -7 -8 4 -13
1 -13 -8 0 -9 4 -16 9 -16 5 0 11 -11 13 -24 4 -19 1 -23 -11 -19 -9 3 -5 -5
9 -17 14 -12 19 -19 13 -15 -7 3 -13 1 -13 -4 0 -6 6 -11 13 -12 6 0 3 -4 -8
-9 -11 -5 -15 -9 -8 -9 6 -1 10 -10 8 -20 -2 -11 3 -22 11 -25 13 -5 12 -10
-1 -43 -13 -33 -13 -35 0 -19 8 11 18 17 21 13 4 -4 1 -13 -6 -22 -7 -8 -8
-15 -2 -15 5 0 12 -9 15 -20 3 -11 1 -18 -3 -15 -5 3 -7 -3 -5 -12 2 -10 4
-22 4 -26 1 -5 7 -5 14 -1 8 5 8 2 -2 -9 -12 -16 -8 -22 12 -18 5 1 6 -3 2 -8
-3 -6 -13 -8 -23 -5 -16 5 -16 5 1 -6 19 -12 24 -35 5 -25 -7 4 -6 1 2 -7 9
-7 14 -22 12 -33 -2 -16 -1 -17 7 -5 6 8 11 10 11 5 0 -6 -5 -16 -12 -23 -9
-9 -9 -12 1 -12 9 0 12 -11 9 -34 -3 -27 -1 -33 12 -28 9 3 5 -4 -8 -18 -13
-12 -21 -28 -18 -36 3 -8 1 -14 -5 -14 -6 0 -7 -6 -3 -12 6 -10 5 -10 -8 0
-13 10 -15 9 -13 -13 3 -22 1 -24 -18 -14 -12 7 -19 8 -15 4 10 -10 -33 -55
-46 -48 -6 4 -4 -2 4 -12 9 -11 10 -16 3 -11 -8 4 -13 2 -13 -5 0 -8 -5 -7
-17 2 -15 13 -15 12 -5 -8 9 -17 9 -22 -4 -27 -10 -4 -13 -2 -8 6 4 7 3 8 -5
4 -6 -4 -9 -17 -6 -29 2 -12 2 -16 -1 -9 -5 10 -9 10 -22 0 -10 -8 -13 -9 -9
-1 4 6 3 14 -2 17 -5 4 -8 -5 -6 -19 1 -15 -3 -25 -10 -25 -7 0 -16 -7 -19
-16 -3 -8 -10 -13 -15 -9 -5 3 -13 0 -17 -6 -4 -7 -3 -9 3 -6 6 4 13 0 16 -8
4 -9 1 -12 -7 -9 -8 3 -17 0 -21 -5 -3 -6 -11 -9 -16 -5 -12 7 -7 -19 6 -29 6
-5 -1 -5 -14 -2 -18 5 -22 4 -16 -6 6 -9 3 -11 -9 -6 -11 4 -15 3 -11 -4 4 -6
-2 -13 -14 -16 -12 -3 -21 -10 -21 -15 0 -5 5 -6 10 -3 6 3 10 3 10 0 0 -3
-13 -11 -29 -16 -20 -7 -28 -15 -24 -25 4 -10 0 -12 -11 -8 -11 4 -16 1 -16
-10 0 -9 -7 -16 -16 -16 -9 0 -12 -5 -8 -12 5 -7 2 -9 -8 -6 -10 4 -14 0 -14
-16 1 -14 -4 -20 -16 -18 -18 3 -42 -30 -30 -43 4 -4 -3 -3 -15 3 -18 10 -20
9 -16 -7 3 -10 -1 -22 -8 -26 -8 -6 -10 -4 -4 5 5 7 -4 5 -18 -6 -15 -10 -27
-25 -27 -31 0 -7 -5 -13 -11 -13 -6 0 -8 -7 -5 -16 3 -8 2 -12 -4 -9 -5 3 -18
1 -27 -4 -10 -6 -14 -11 -8 -11 15 0 -88 -100 -103 -100 -8 0 -12 -6 -9 -14 4
-10 -1 -12 -16 -9 -13 3 -18 1 -12 -4 14 -11 17 -33 5 -33 -5 0 -10 5 -10 10
0 6 -4 10 -8 10 -5 0 -9 -7 -9 -15 0 -8 4 -12 9 -9 4 3 8 1 8 -4 0 -5 10 -8
23 -8 14 1 21 -4 19 -14 -2 -11 2 -9 13 4 14 19 15 18 24 -5 l10 -24 1 25 c0
19 2 22 9 10 6 -8 8 -17 6 -20 -2 -4 2 -7 10 -7 8 0 12 4 9 8 -2 4 1 11 7 15
8 4 9 3 5 -4 -10 -17 28 -34 44 -19 10 9 11 9 6 0 -7 -13 17 -18 53 -13 8 1
18 -4 22 -12 7 -10 9 -10 9 1 0 11 4 9 14 -5 14 -18 15 -18 22 -1 5 14 9 16
15 6 4 -8 23 -12 46 -11 28 2 34 0 23 -8 -8 -5 -10 -10 -5 -10 6 0 16 5 23 12
9 9 12 9 12 -1 0 -10 3 -11 14 -2 14 11 49 5 42 -8 -3 -4 11 -5 31 -3 28 4 34
2 28 -9 -5 -8 -5 -11 0 -7 4 4 15 2 23 -5 13 -11 14 -9 2 13 -12 22 -11 24 2
13 8 -7 17 -11 20 -8 3 3 13 -4 23 -15 10 -11 23 -20 28 -20 6 0 2 7 -9 15
-18 14 -18 15 6 6 14 -4 31 -6 38 -4 6 3 12 0 12 -5 0 -5 7 -13 16 -16 13 -5
14 -4 5 7 -9 12 -6 14 16 10 16 -2 40 -5 56 -7 15 -2 31 -7 35 -11 4 -5 2 -5
-5 -1 -6 3 -14 3 -17 -2 -2 -4 6 -8 19 -8 13 0 21 4 18 9 -6 10 30 5 37 -5 3
-4 23 -10 44 -12 35 -5 37 -4 24 12 -11 15 -11 16 3 5 9 -7 20 -9 24 -5 5 4 5
2 2 -4 -4 -7 0 -15 9 -18 8 -3 13 -2 10 2 -4 7 3 8 46 3 4 -1 5 -9 2 -18 -4
-11 -3 -14 3 -7 4 6 18 13 31 16 16 5 22 2 22 -10 0 -15 2 -15 10 -2 8 12 10
12 10 1 0 -9 9 -12 29 -9 17 2 28 1 25 -4 -3 -4 1 -11 9 -14 10 -3 14 -18 13
-39 -1 -18 1 -32 3 -29 6 6 31 -17 31 -28 0 -6 -8 -4 -17 3 -16 13 -17 12 -4
-4 9 -11 22 -16 35 -12 12 3 16 2 10 -1 -7 -3 -10 -14 -7 -24 3 -11 0 -20 -6
-20 -5 0 -8 7 -5 15 4 8 4 15 1 15 -3 0 -7 -6 -10 -14 -4 -9 5 -22 21 -32 26
-17 27 -17 12 2 -9 12 -4 10 13 -5 28 -26 38 -43 12 -21 -13 11 -15 9 -12 -9
4 -28 28 -45 40 -28 5 7 6 3 2 -10 -5 -19 -3 -22 12 -17 10 3 7 -2 -7 -10 -14
-8 -19 -15 -12 -16 7 0 10 -5 6 -12 -4 -7 -3 -8 5 -4 6 4 9 11 7 15 -3 4 5 8
17 8 12 1 17 -1 11 -5 -6 -4 -13 -19 -16 -35 -4 -22 -3 -25 9 -16 7 7 16 9 20
5 3 -3 1 -6 -5 -6 -6 0 -9 -7 -5 -17 5 -12 3 -14 -7 -8 -8 5 -11 4 -6 -3 4 -6
14 -8 24 -5 14 5 14 3 -3 -17 -11 -13 -14 -20 -8 -16 21 12 54 16 48 5 -4 -5
-11 -7 -16 -4 -5 4 -9 1 -9 -4 0 -6 5 -11 10 -11 6 0 10 -4 10 -9 0 -6 -9 -8
-20 -6 -11 2 -20 0 -20 -5 0 -5 19 -7 43 -5 23 3 38 1 32 -3 -14 -10 -17 -32
-5 -32 5 0 10 -6 10 -14 0 -8 6 -17 13 -19 9 -4 9 -6 0 -6 -7 -1 -17 8 -23 19
-6 11 -18 20 -28 19 -14 0 -14 -2 -2 -6 25 -10 40 -36 27 -46 -7 -5 -2 -6 11
-2 13 4 22 2 22 -5 0 -6 5 -8 12 -4 6 4 8 3 5 -4 -4 -5 -15 -9 -25 -7 -9 1
-11 0 -4 -2 7 -3 10 -9 7 -14 -4 -5 2 -6 12 -2 10 3 15 3 11 -2 -4 -4 2 -26
14 -49 24 -47 24 -46 6 -58 -10 -8 -10 -9 2 -5 8 2 14 9 13 15 -2 6 4 9 12 6
13 -5 13 -8 -1 -21 -10 -11 -12 -19 -5 -27 7 -8 7 -16 0 -23 -6 -6 -5 -10 5
-10 8 0 13 4 10 9 -3 4 1 8 9 8 7 0 14 -6 14 -12 0 -7 4 -22 8 -33 7 -19 7
-19 -7 -2 -13 18 -14 18 -14 -1 0 -16 6 -19 28 -16 23 2 26 1 15 -10 -6 -8
-17 -12 -23 -9 -17 6 -24 -10 -12 -27 8 -12 9 -11 4 4 -4 13 -2 17 8 13 7 -3
19 0 25 6 6 6 11 7 11 1 0 -6 -5 -15 -12 -22 -16 -16 4 -16 21 1 9 8 12 8 7 0
-3 -6 -1 -13 6 -15 7 -3 5 -7 -6 -11 -10 -4 -15 -3 -11 3 3 6 -1 7 -10 3 -13
-4 -14 -8 -4 -14 7 -4 17 -5 23 -2 5 4 7 -1 3 -11 -4 -10 -3 -15 3 -11 18 11
10 -14 -7 -25 -17 -11 -17 -11 0 -6 9 3 25 9 35 13 11 4 8 -2 -8 -15 -14 -12
-20 -22 -15 -21 26 4 35 -3 35 -25 0 -14 -4 -28 -10 -31 -5 -3 -10 -11 -10
-18 0 -6 6 -3 13 7 7 9 17 17 22 16 6 -2 13 -1 18 0 4 1 13 3 20 4 6 1 11 8 9
16 -2 8 0 12 4 8 4 -4 14 -2 23 5 14 11 14 10 2 -5 -9 -13 -10 -18 -2 -18 7 0
9 -4 6 -10 -3 -6 1 -7 10 -3 12 4 13 8 5 13 -7 4 -10 12 -6 18 3 6 2 14 -4 17
-8 5 -7 11 1 21 6 8 8 14 4 14 -4 0 -2 7 5 15 7 8 17 12 22 8 6 -3 9 0 6 8 -3
8 6 22 19 32 25 20 23 39 -5 31 -15 -5 -15 -4 1 6 12 8 22 8 30 2 9 -8 13 -3
13 19 1 16 -2 29 -7 29 -4 0 -6 -9 -4 -20 2 -12 0 -18 -6 -15 -5 4 -7 11 -4
16 4 5 0 9 -7 9 -7 1 -4 6 8 13 12 7 19 18 16 26 -4 12 -3 12 11 0 8 -8 13
-17 10 -21 -2 -4 3 -5 11 -2 13 5 12 9 -4 26 -19 20 -18 44 1 32 5 -3 7 -9 4
-14 -3 -5 5 -14 17 -20 21 -10 22 -10 5 4 -22 17 -23 26 -5 37 10 7 9 9 -4 9
-20 0 -24 15 -6 26 7 4 8 3 4 -4 -4 -7 -2 -12 3 -12 6 0 11 6 11 14 0 8 7 17
16 20 8 3 13 10 9 15 -3 5 0 13 6 17 8 5 4 13 -11 24 l-23 18 27 -3 c23 -3 27
0 23 16 -3 10 0 22 5 26 6 3 8 1 5 -4 -4 -6 -1 -13 6 -16 8 -3 12 7 11 35 -2
34 0 37 14 26 14 -12 14 -10 2 12 -13 24 -12 24 5 10 17 -14 18 -13 8 5 -12
25 -11 46 2 43 6 -2 9 -6 8 -10 -3 -9 25 -4 34 7 4 4 3 5 -3 2 -7 -4 -15 0
-18 9 -4 11 -2 15 7 11 8 -3 14 1 14 9 0 7 -5 11 -11 8 -6 -3 -4 0 5 8 9 7 14
18 12 25 -2 6 1 14 7 18 6 3 9 1 8 -6 -2 -6 4 -14 12 -16 13 -4 13 -3 0 6 -8
6 -11 11 -5 11 5 0 3 6 -4 13 -10 10 -15 8 -27 -7 -8 -11 -14 -15 -14 -8 0 6
9 17 21 25 11 8 22 23 24 33 1 11 8 18 14 17 6 -2 15 6 21 17 6 11 15 18 20
15 6 -3 7 1 4 9 -6 15 6 21 31 16 6 -1 7 2 2 6 -10 11 -47 13 -41 2 3 -4 0 -8
-5 -8 -6 0 -11 3 -11 8 1 11 26 42 35 42 4 0 1 -8 -6 -17 -11 -15 -9 -14 9 1
12 11 20 21 17 24 -3 3 0 11 6 19 9 10 8 17 -2 30 -8 9 -9 14 -3 10 16 -9 25
18 12 31 -7 7 -6 10 5 8 9 -1 20 -6 24 -11 4 -4 2 -5 -6 0 -10 6 -12 4 -6 -5
6 -10 11 -9 21 5 7 10 11 21 9 26 -3 4 -1 10 5 14 6 4 8 11 5 16 -4 5 1 9 10
9 10 0 13 -5 9 -12 -4 -7 -3 -8 5 -4 9 6 9 11 0 22 -10 12 -9 13 4 9 8 -4 18
-1 23 6 4 7 3 10 -4 5 -6 -3 -13 -2 -16 3 -4 5 2 8 11 6 10 -2 21 -4 25 -4 3
-1 9 -9 11 -18 3 -11 6 -6 7 12 2 30 2 30 10 5 5 -16 8 -19 9 -8 1 9 6 20 13
24 7 5 8 3 3 -6 -6 -9 -2 -10 15 -5 17 6 21 4 14 -6 -6 -12 -5 -12 8 -1 12 9
18 10 23 2 5 -8 11 -8 19 -1 7 6 17 7 21 3 5 -4 5 -1 1 6 -6 10 -11 10 -22 1
-10 -8 -14 -8 -14 0 0 6 3 11 8 12 4 0 17 2 29 3 14 2 19 -2 16 -11 -3 -7 0
-13 6 -13 6 0 11 10 12 23 0 12 3 16 6 10 7 -20 26 -15 19 5 -5 15 -5 15 8 -1
17 -22 63 -30 63 -11 0 9 -5 10 -18 3 -10 -5 -20 -5 -23 -1 -3 5 0 9 7 9 21 1
42 8 48 16 3 5 9 1 12 -8 5 -11 3 -14 -6 -9 -6 4 -8 3 -4 -1 10 -11 39 -16 32
-5 -5 9 24 18 86 26 35 5 38 4 33 -13 -5 -17 -5 -17 6 0 6 9 8 23 4 30 -5 8
-2 8 9 -2 9 -7 14 -18 11 -23 -3 -5 3 -4 15 4 12 7 21 16 21 19 0 4 7 10 16
13 14 5 15 4 4 -9 -8 -9 -8 -15 -2 -15 6 0 18 10 28 23 11 14 14 16 11 5 -4
-10 -2 -20 3 -23 6 -4 10 1 10 9 0 8 5 18 12 22 7 5 8 3 3 -6 -6 -9 -2 -10 15
-5 17 6 21 4 14 -6 -5 -9 3 -7 20 5 24 15 28 16 23 3 -4 -11 -2 -14 8 -11 8 3
11 12 9 19 -3 7 0 16 7 21 8 4 10 3 5 -4 -13 -21 30 -13 60 10 24 18 26 19 14
3 -13 -17 -13 -18 1 -13 9 4 22 1 29 -5 10 -10 12 -8 6 8 -6 19 -6 19 9 1 11
-15 17 -17 29 -7 11 9 15 9 19 -1 4 -9 6 -9 6 -1 1 17 -20 27 -29 13 -5 -9 -9
-8 -13 3 -4 11 1 14 17 13 32 -4 48 -15 39 -29 -4 -7 0 -7 10 1 9 8 22 10 28
6 7 -4 9 -3 5 4 -3 6 3 16 15 22 12 7 19 8 15 2 -3 -5 0 -12 8 -15 8 -3 13 1
12 10 0 9 5 18 12 20 6 3 12 0 12 -7 0 -6 -4 -8 -10 -5 -6 4 -7 -1 -3 -11 5
-14 8 -13 19 7 7 13 13 19 14 14 0 -17 38 -36 46 -23 4 7 3 8 -4 4 -6 -3 -16
2 -22 13 -7 13 -7 22 0 26 6 4 8 11 5 16 -4 5 -2 9 4 9 5 0 9 -9 8 -19 0 -11
-5 -17 -11 -14 -5 4 -6 1 -2 -6 6 -9 13 -8 29 6 12 10 24 20 27 22 3 2 -3 1
-14 -3 -14 -5 -17 -2 -12 9 3 9 2 13 -4 10 -6 -3 -10 -1 -10 5 0 6 -6 10 -12
9 -34 -4 -39 2 -17 22 l24 20 -23 -11 c-26 -13 -25 -14 -41 17 -6 13 -17 22
-23 20 -7 -1 -12 4 -13 12 0 8 -8 15 -18 17 -11 1 -22 6 -25 10 -4 4 1 4 11 1
9 -4 17 -2 17 3 0 6 -9 10 -19 10 -10 0 -22 8 -26 18 -5 14 -4 15 6 5 7 -7 20
-13 28 -13 9 0 0 8 -19 19 -26 14 -35 25 -34 44 0 14 -4 23 -9 20 -4 -3 -6
-11 -3 -19 3 -8 -1 -14 -11 -14 -9 0 -14 3 -10 6 3 4 -1 13 -9 22 -13 12 -13
16 -2 23 19 13 0 11 -24 -2 -15 -8 -19 -8 -14 0 4 6 2 11 -3 11 -6 0 -11 9
-11 20 0 11 -7 20 -15 20 -9 0 -12 6 -8 18 6 15 4 15 -15 -2 -12 -11 -22 -14
-22 -8 0 7 5 12 10 12 6 0 10 5 10 11 0 5 -4 7 -10 4 -5 -3 -11 -1 -11 4 -1 6
-2 17 -3 24 0 6 -13 13 -28 15 -16 2 -28 7 -28 12 0 5 9 7 20 5 11 -2 18 0 15
5 -3 5 -17 7 -30 4 -14 -2 -25 0 -25 6 0 5 6 10 13 10 8 0 7 4 -3 10 -11 7
-11 10 -2 10 7 0 10 5 6 11 -4 8 -9 7 -15 -2 -4 -7 -6 -16 -3 -20 2 -4 1 -10
-4 -13 -4 -2 -9 5 -9 16 -2 25 -6 29 -30 31 -11 0 -20 7 -20 14 0 10 4 10 11
3 5 -5 15 -10 20 -10 6 0 -1 8 -17 18 -15 10 -25 21 -22 24 3 3 -1 8 -9 11 -9
4 -18 1 -22 -5 -4 -6 -3 -8 3 -5 6 4 13 0 17 -8 3 -8 0 -17 -6 -21 -6 -4 -8
-3 -5 3 4 6 0 14 -8 17 -13 5 -14 10 -4 27 9 17 8 20 -2 13 -8 -4 -22 -9 -32
-9 -19 -2 -19 -1 -1 14 11 9 18 15 16 14 -7 -3 -41 31 -37 37 2 4 -2 7 -10 7
-20 0 -19 -3 7 -27 12 -11 16 -20 9 -20 -6 0 -20 13 -29 30 -9 16 -26 34 -37
40 -20 11 -20 11 0 5 l20 -5 -20 15 c-11 9 -20 24 -20 33 0 10 -8 17 -19 17
-11 0 -21 6 -24 13 -2 6 -10 12 -18 12 -9 0 -13 4 -10 9 3 5 -1 11 -9 15 -8 3
-15 12 -15 21 0 8 -4 15 -10 15 -5 0 -10 5 -10 11 0 5 4 8 8 5 5 -3 9 1 9 9 0
8 -4 12 -9 9 -4 -3 -8 4 -8 16 0 13 4 19 12 14 7 -4 8 -3 4 4 -4 6 -12 9 -19
6 -14 -5 -15 44 -2 65 3 6 0 11 -7 11 -10 0 -10 2 1 9 7 5 11 14 7 20 -5 7 -1
9 9 5 12 -5 13 -9 4 -20 -6 -8 -8 -14 -5 -14 4 0 2 -8 -3 -18 -7 -14 -6 -19 3
-19 7 0 12 10 11 21 -1 12 2 26 7 32 5 8 3 18 -8 28 -19 20 -11 34 10 17 10
-8 16 -9 21 -1 4 6 1 9 -5 8 -14 -3 -22 29 -10 37 5 3 7 12 4 20 -4 8 -11 12
-17 8 -6 -4 -7 -1 -1 8 4 8 9 20 11 28 1 8 8 18 15 22 7 5 13 17 13 27 0 10 7
27 15 38 11 15 11 16 0 7 -8 -7 -20 -13 -28 -13 -10 0 -9 5 5 18 10 9 14 13 7
9 -7 -5 -15 -2 -20 5 -4 7 -4 10 0 6 4 -3 17 3 28 14 16 16 17 22 8 31 -10 9
-11 9 -5 -2 6 -10 4 -12 -5 -6 -9 5 -11 4 -6 -3 4 -7 2 -12 -3 -12 -15 0 -14
13 2 29 9 11 9 14 0 18 -10 3 -9 8 2 19 8 9 19 13 25 9 11 -7 2 23 -13 43 -5
7 -7 15 -3 19 3 3 6 2 6 -4 0 -6 7 -14 16 -17 14 -5 15 -4 4 9 -10 11 -10 18
-1 29 9 11 9 16 0 22 -8 4 -9 3 -5 -4 5 -8 1 -10 -10 -5 -15 5 -15 7 0 15 9 5
21 6 28 2 7 -5 8 -3 2 7 -5 8 -7 22 -6 32 2 10 -2 24 -8 32 -9 11 -7 13 12 9
13 -2 18 -2 11 2 -7 3 -9 12 -6 20 4 10 0 12 -13 8 -11 -4 -16 -4 -12 0 3 4
14 9 25 11 10 2 19 4 21 4 1 1 -2 10 -8 22 -15 28 -21 61 -9 54 14 -9 11 29
-3 44 -9 9 -9 12 -1 7 6 -3 13 -3 16 1 2 5 2 3 1 -4 -2 -7 0 -15 5 -17 4 -3 7
8 7 24 0 16 -3 27 -7 24 -4 -2 -11 1 -15 7 -4 7 -3 9 3 6 6 -4 19 1 29 9 10 9
13 13 7 9 -8 -4 -13 0 -13 10 0 10 5 13 13 9 8 -5 8 -2 -2 9 -7 9 -10 17 -7
17 4 0 2 9 -5 21 -10 19 -9 20 13 14 20 -5 20 -4 5 5 -14 9 -15 15 -6 33 7 12
17 25 23 29 8 5 7 8 -1 8 -8 0 -13 13 -13 31 0 17 4 28 10 24 6 -3 10 -1 10 4
0 14 -17 14 -25 1 -4 -6 -12 -7 -18 -3 -8 4 -7 1 1 -9 9 -12 10 -18 2 -23 -6
-4 -14 -4 -17 -1 -4 3 0 6 8 6 10 1 9 4 -4 11 -9 6 -15 14 -12 19 3 5 1 12 -5
15 -6 4 -9 2 -8 -3 2 -5 -8 -19 -22 -31 -14 -13 -20 -20 -13 -17 6 4 15 1 19
-6 4 -7 4 -10 -1 -6 -4 4 -15 2 -23 -5 -11 -8 -14 -8 -9 0 4 6 3 14 -3 18 -5
3 -10 -1 -10 -11 0 -13 -3 -14 -13 -5 -14 11 -27 5 -27 -13 0 -6 5 -4 11 4 7
10 9 11 7 2 -2 -8 -6 -12 -10 -10 -3 2 -16 -6 -27 -16 -23 -21 -55 -31 -45
-15 3 5 0 9 -7 9 -7 0 -9 -8 -6 -21 4 -14 2 -18 -6 -11 -24 18 -46 22 -40 6 3
-7 10 -14 16 -14 6 0 7 -3 4 -6 -4 -4 -14 -1 -24 7 -14 12 -16 12 -8 0 6 -11
3 -13 -16 -8 -23 6 -23 5 -5 -8 23 -18 13 -20 -16 -4 -18 10 -20 9 -14 -6 5
-15 4 -16 -8 -6 -10 9 -16 9 -21 1 -4 -6 -13 -9 -21 -6 -8 3 -13 2 -13 -2 4
-23 -2 -42 -11 -37 -6 4 -7 11 -4 17 4 7 2 8 -4 4 -7 -4 -12 -17 -13 -29 0
-12 -3 -16 -6 -9 -5 13 -24 17 -22 5 3 -20 -3 -23 -21 -13 -21 11 -27 1 -10
-16 7 -7 6 -11 -4 -11 -8 0 -15 3 -14 6 2 24 -6 21 -23 -9 -11 -19 -18 -27
-15 -17 4 12 2 17 -6 15 -7 -3 -13 -10 -13 -16 0 -7 -3 -12 -7 -12 -5 0 -13 0
-19 0 -5 0 -7 5 -3 12 4 7 3 8 -5 4 -9 -6 -9 -11 1 -24 11 -13 11 -14 -7 -5
-22 12 -55 -4 -55 -27 0 -9 -4 -10 -13 -2 -9 8 -17 8 -27 0 -12 -8 -12 -9 3
-4 9 3 17 1 17 -4 0 -6 -5 -10 -11 -10 -5 0 -7 -5 -3 -11 3 -6 -6 -3 -20 6
-21 14 -26 15 -24 4 2 -8 -4 -14 -12 -14 -8 0 -22 -5 -30 -10 -8 -5 -18 -10
-22 -11 -5 -1 -11 -2 -14 -3 -4 0 -1 -7 5 -15 10 -12 8 -13 -8 -9 -12 3 -21 1
-21 -6 0 -8 -5 -9 -19 -1 -14 7 -22 7 -27 -2 -4 -6 -3 -8 3 -5 6 4 14 0 17 -9
3 -8 2 -12 -3 -9 -6 3 -15 -3 -21 -12 -9 -16 -10 -16 -8 -1 2 9 -1 16 -7 15
-5 -1 -9 -10 -9 -20 1 -10 -1 -15 -4 -12 -3 3 -14 -2 -24 -12 -10 -9 -18 -12
-18 -8 0 4 -9 0 -20 -10 -17 -16 -20 -16 -26 -2 -7 19 -62 17 -74 -2 -5 -10
-11 -5 -18 15 -6 18 -11 22 -11 12 -1 -10 -5 -18 -11 -18 -5 0 -7 7 -3 16 5
14 1 16 -20 12 -15 -3 -24 -1 -21 4 7 11 -14 38 -29 38 -6 0 -3 -6 8 -13 14
-11 15 -16 5 -22 -9 -5 -11 -4 -6 3 4 7 2 12 -4 12 -17 0 -40 26 -32 36 4 5 0
3 -9 -4 -12 -9 -20 -8 -35 4 -18 14 -18 14 6 4 24 -11 24 -10 6 4 -11 9 -25
16 -30 16 -6 0 -4 5 4 11 13 9 13 10 0 6 -8 -2 -14 -13 -12 -23 2 -15 1 -16
-6 -5 -6 8 -15 10 -23 5 -12 -6 -12 -5 0 9 12 15 11 17 -3 17 -11 0 -15 5 -10
13 4 6 4 9 -1 5 -4 -4 -17 -3 -29 3 -20 10 -20 10 -2 -5 11 -9 15 -16 10 -16
-16 0 -34 22 -34 42 0 21 -11 23 -28 6 -9 -9 -12 -9 -13 3 -1 7 -1 18 0 22 1
5 -3 6 -9 2 -5 -3 -10 -1 -10 6 0 7 -3 9 -6 6 -4 -4 -1 -13 6 -22 7 -9 10 -18
6 -22 -3 -3 -6 -1 -6 5 0 7 -6 12 -13 12 -7 0 -23 9 -34 19 -12 11 -24 17 -27
13 -4 -3 -4 2 0 13 7 18 6 19 -11 5 -17 -14 -17 -13 -11 10 6 20 5 22 -4 8 -6
-10 -17 -15 -26 -11 -11 4 -12 8 -3 19 10 12 8 13 -6 7 -14 -5 -17 -3 -12 9 5
14 1 15 -24 8 -22 -7 -29 -5 -29 6 0 8 -5 14 -11 14 -5 0 -7 6 -3 13 5 8 2 8
-9 -2 -14 -11 -17 -11 -18 0 -1 8 -1 18 0 22 1 5 -3 6 -9 2 -5 -3 -10 -1 -10
6 0 7 -3 9 -6 6 -4 -4 -1 -13 6 -21 10 -13 8 -13 -19 0 -34 17 -41 27 -13 18
13 -5 14 -4 3 4 -7 5 -22 7 -32 5 -17 -5 -24 6 -20 30 1 5 -3 6 -8 2 -6 -3
-19 3 -30 14 -18 18 -20 18 -26 3 -5 -12 -9 -13 -12 -4 -3 6 -9 10 -13 7 -5
-3 -12 0 -16 6 -4 7 -3 9 4 5 6 -3 14 -1 18 5 4 7 3 9 -3 6 -6 -4 -23 3 -39
15 -15 13 -25 17 -21 11 5 -8 0 -11 -13 -10 -11 1 -20 5 -20 10 0 4 -4 5 -10
2 -9 -5 -14 7 -12 26 1 4 -8 5 -18 2 -12 -3 -20 0 -20 6 0 7 -5 9 -12 5 -7 -5
-9 -2 -6 7 4 10 -1 15 -13 15 -11 0 -19 -4 -19 -8z m2040 -38 c0 -5 -8 -10
-17 -10 -15 0 -16 2 -3 10 19 12 20 12 20 0z m-1872 -55 c-3 -3 -9 2 -12 12
-6 14 -5 15 5 6 7 -7 10 -15 7 -18z m1912 -5 c-12 -23 -30 -35 -30 -21 0 6 5
11 11 11 5 0 7 5 4 10 -3 6 -1 10 5 10 6 0 8 5 4 12 -4 7 -3 8 4 4 9 -5 9 -13
2 -26z m-1834 -36 c1 -9 0 -13 -4 -10 -3 4 -7 14 -8 22 -1 9 0 13 4 10 3 -4 7
-14 8 -22z m32 -19 c-3 -3 -9 2 -12 12 -6 14 -5 15 5 6 7 -7 10 -15 7 -18z
m1787 -33 c-3 -3 -11 0 -18 7 -9 10 -8 11 6 5 10 -3 15 -9 12 -12z m-343 -14
c-7 -7 -12 -8 -12 -2 0 14 12 26 19 19 2 -3 -1 -11 -7 -17z m-257 -128 c4 -6
1 -9 -7 -8 -7 2 -12 -3 -10 -10 1 -8 -2 -11 -8 -7 -8 5 -7 11 1 21 14 17 16
17 24 4z m-788 -32 c-3 -8 -6 -5 -6 6 -1 11 2 17 5 13 3 -3 4 -12 1 -19z m676
-33 c-3 -9 -8 -14 -10 -11 -3 3 -2 9 2 15 9 16 15 13 8 -4z m-29 -16 c-3 -5
-10 -7 -15 -4 -5 4 -9 1 -9 -6 0 -7 -3 -9 -6 -6 -9 9 16 38 27 31 5 -3 7 -10
3 -15z m706 11 c0 -5 -5 -10 -11 -10 -5 0 -7 5 -4 10 3 6 8 10 11 10 2 0 4 -4
4 -10z m-993 -135 c0 -6 -6 -12 -12 -12 -6 0 -12 6 -12 12 0 6 6 12 12 12 6 0
12 -6 12 -12z m27 0 c3 -8 1 -15 -4 -15 -6 0 -10 7 -10 15 0 8 2 15 4 15 2 0
6 -7 10 -15z m933 -101 c-3 -3 -12 -4 -19 -1 -8 3 -5 6 6 6 11 1 17 -2 13 -5z
m-1880 -99 c0 -8 -4 -12 -9 -9 -5 3 -6 10 -3 15 9 13 12 11 12 -6z m1860 -101
c-3 -3 -12 -4 -19 -1 -8 3 -5 6 6 6 11 1 17 -2 13 -5z m-22 -94 c-3 -5 -12
-10 -18 -10 -7 0 -6 4 3 10 19 12 23 12 15 0z m-38 -214 c-3 -8 -1 -17 6 -19
7 -3 2 -4 -10 -4 -15 1 -19 5 -13 13 6 6 7 14 3 17 -3 4 -1 7 6 7 7 0 11 -6 8
-14z m-1735 -23 c-6 -2 -9 -10 -6 -15 4 -7 2 -8 -5 -4 -13 9 -5 26 12 25 9 0
8 -2 -1 -6z m2172 -445 c-3 -4 -11 -5 -19 -1 -21 7 -19 12 4 10 11 0 18 -5 15
-9z m-2764 -152 c0 -2 -7 -7 -16 -10 -8 -3 -12 -2 -9 4 6 10 25 14 25 6z
m2935 -26 c3 -6 -1 -7 -9 -4 -18 7 -21 14 -7 14 6 0 13 -4 16 -10z m42 -235
c0 -8 -6 -16 -13 -19 -7 -3 -10 2 -7 15 6 22 20 26 20 4z m-2920 -37 c-3 -8
-6 -5 -6 6 -1 11 2 17 5 13 3 -3 4 -12 1 -19z m2343 -52 c0 -2 -7 -7 -16 -10
-8 -3 -12 -2 -9 4 6 10 25 14 25 6z m-247 -37 c-8 -8 -13 -7 -18 2 -5 8 -4 10
3 5 7 -4 12 -2 12 5 0 7 3 9 7 6 4 -4 2 -12 -4 -18z m-182 -72 c-6 -8 -8 -17
-4 -21 4 -4 0 -4 -9 -1 -14 5 -15 10 -5 21 16 17 33 18 18 1z m-1006 -37 c3
-5 1 -10 -4 -10 -6 0 -11 5 -11 10 0 6 2 10 4 10 3 0 8 -4 11 -10z m947 -73
c-7 -8 -8 -18 -4 -22 4 -5 1 -5 -6 -1 -9 5 -9 12 -1 27 6 12 13 18 16 15 3 -3
1 -12 -5 -19z m-52 -102 c-7 -9 -15 -13 -19 -10 -3 3 1 10 9 15 21 14 24 12
10 -5z m-200 -379 c0 -3 -4 -8 -10 -11 -5 -3 -10 -1 -10 4 0 6 5 11 10 11 6 0
10 -2 10 -4z m-376 -91 c-4 -8 -11 -12 -16 -9 -6 4 -5 10 3 15 19 12 19 11 13
-6z m286 -130 c0 -2 -10 -9 -22 -15 -22 -11 -22 -10 -4 4 21 17 26 19 26 11z
m-145 -145 c3 -5 1 -10 -4 -10 -6 0 -11 5 -11 10 0 6 2 10 4 10 3 0 8 -4 11
-10z"/>
<path d="M9225 5969 c-11 -17 1 -21 15 -4 8 9 8 15 2 15 -6 0 -14 -5 -17 -11z"/>
<path d="M7920 5776 c0 -2 7 -9 15 -16 13 -11 14 -10 9 4 -5 14 -24 23 -24 12z"/>
<path d="M7350 5736 c0 -2 8 -10 18 -17 15 -13 16 -12 3 4 -13 16 -21 21 -21
13z"/>
<path d="M9385 5710 c-3 -5 -2 -10 4 -10 5 0 13 5 16 10 3 6 2 10 -4 10 -5 0
-13 -4 -16 -10z"/>
<path d="M6436 5667 c3 -10 9 -15 12 -12 3 3 0 11 -7 18 -10 9 -11 8 -5 -6z"/>
<path d="M6786 5622 c-3 -5 1 -9 9 -9 8 0 12 4 9 9 -3 4 -7 8 -9 8 -2 0 -6 -4
-9 -8z"/>
<path d="M8453 5576 c-18 -11 -33 -25 -33 -30 0 -5 9 -1 20 9 11 10 20 15 20
11 0 -4 7 0 16 9 25 24 13 25 -23 1z"/>
<path d="M8331 5564 c0 -11 3 -14 6 -6 3 7 2 16 -1 19 -3 4 -6 -2 -5 -13z"/>
<path d="M3906 5452 c-2 -4 4 -8 14 -8 10 0 16 4 14 8 -3 4 -9 8 -14 8 -5 0
-11 -4 -14 -8z"/>
<path d="M9335 5390 c3 -5 8 -10 11 -10 2 0 4 5 4 10 0 6 -5 10 -11 10 -5 0
-7 -4 -4 -10z"/>
<path d="M4180 5286 c0 -3 9 -10 20 -16 11 -6 20 -8 20 -6 0 3 -9 10 -20 16
-11 6 -20 8 -20 6z"/>
<path d="M9306 5185 c-3 -8 0 -17 6 -21 6 -4 8 -3 4 4 -3 5 -1 12 6 14 8 3 9
6 1 11 -6 4 -13 0 -17 -8z"/>
<path d="M7315 5070 c-3 -5 -1 -10 4 -10 6 0 11 5 11 10 0 6 -2 10 -4 10 -3 0
-8 -4 -11 -10z"/>
<path d="M7323 5015 c0 -8 4 -15 9 -15 4 0 8 4 8 9 0 6 -4 12 -8 15 -5 3 -9
-1 -9 -9z"/>
<path d="M9310 4860 c-9 -6 -10 -10 -3 -10 6 0 15 5 18 10 8 12 4 12 -15 0z"/>
<path d="M9430 4730 c0 -5 5 -10 10 -10 6 0 10 5 10 10 0 6 -4 10 -10 10 -5 0
-10 -4 -10 -10z"/>
<path d="M7055 4690 c-3 -5 -1 -10 4 -10 6 0 11 5 11 10 0 6 -2 10 -4 10 -3 0
-8 -4 -11 -10z"/>
<path d="M9785 4370 c3 -5 8 -10 11 -10 2 0 4 5 4 10 0 6 -5 10 -11 10 -5 0
-7 -4 -4 -10z"/>
<path d="M6430 4250 c0 -5 5 -10 11 -10 5 0 7 5 4 10 -3 6 -8 10 -11 10 -2 0
-4 -4 -4 -10z"/>
<path d="M9950 4220 c5 -9 7 -19 5 -22 -2 -2 5 -4 16 -4 18 0 18 2 5 12 -19
13 -22 28 -3 18 6 -4 8 -3 4 1 -4 5 -14 10 -22 11 -11 2 -12 -2 -5 -16z"/>
<path d="M6799 4213 c-13 -16 -12 -17 4 -4 16 13 21 21 13 21 -2 0 -10 -8 -17
-17z"/>
<path d="M6753 4173 c-12 -13 -19 -23 -14 -23 10 0 46 39 40 43 -2 2 -14 -7
-26 -20z"/>
<path d="M9990 4170 c0 -5 5 -10 10 -10 6 0 10 5 10 10 0 6 -4 10 -10 10 -5 0
-10 -4 -10 -10z"/>
<path d="M10073 4043 c0 -9 4 -10 14 -2 7 6 13 12 13 14 0 1 -6 2 -13 2 -8 0
-14 -6 -14 -14z"/>
<path d="M9930 4016 c0 -2 7 -7 16 -10 8 -3 12 -2 9 4 -6 10 -25 14 -25 6z"/>
<path d="M9735 4000 c-3 -5 -1 -10 4 -10 6 0 11 5 11 10 0 6 -2 10 -4 10 -3 0
-8 -4 -11 -10z"/>
<path d="M9765 3999 c-4 -6 -5 -12 -2 -15 2 -3 7 2 10 11 7 17 1 20 -8 4z"/>
<path d="M7136 3975 c4 -8 8 -15 10 -15 2 0 4 7 4 15 0 8 -4 15 -10 15 -5 0
-7 -7 -4 -15z"/>
<path d="M7679 3893 c-13 -16 -12 -17 4 -4 9 7 17 15 17 17 0 8 -8 3 -21 -13z"/>
<path d="M7827 3856 c-4 -10 -1 -13 8 -9 8 3 12 9 9 14 -7 12 -11 11 -17 -5z"/>
<path d="M5305 3791 c-3 -5 0 -13 6 -17 7 -4 9 -3 5 4 -3 5 0 13 6 15 9 4 10
6 1 6 -6 1 -14 -3 -18 -8z"/>
<path d="M8870 3769 c0 -5 5 -7 10 -4 6 3 10 8 10 11 0 2 -4 4 -10 4 -5 0 -10
-5 -10 -11z"/>
<path d="M7916 3657 c3 -10 9 -15 12 -12 3 3 0 11 -7 18 -10 9 -11 8 -5 -6z"/>
<path d="M8763 3594 c3 -4 2 -14 -3 -24 -6 -12 -5 -17 5 -17 7 0 11 7 7 15 -4
11 -2 13 9 7 12 -8 12 -6 0 8 -7 9 -16 17 -19 17 -3 0 -2 -3 1 -6z"/>
<path d="M8687 3419 c7 -7 15 -10 18 -7 3 3 -2 9 -12 12 -14 6 -15 5 -6 -5z"/>
<path d="M8070 3410 c0 -5 5 -10 11 -10 5 0 7 5 4 10 -3 6 -8 10 -11 10 -2 0
-4 -4 -4 -10z"/>
<path d="M8599 3203 c-13 -16 -12 -17 4 -4 16 13 21 21 13 21 -2 0 -10 -8 -17
-17z"/>
<path d="M3560 3169 c0 -5 5 -7 10 -4 6 3 10 8 10 11 0 2 -4 4 -10 4 -5 0 -10
-5 -10 -11z"/>
<path d="M8515 3010 c3 -5 8 -10 11 -10 2 0 4 5 4 10 0 6 -5 10 -11 10 -5 0
-7 -4 -4 -10z"/>
<path d="M8445 2960 c-3 -5 -1 -10 4 -10 6 0 11 5 11 10 0 6 -2 10 -4 10 -3 0
-8 -4 -11 -10z"/>
<path d="M8435 2930 c-3 -5 -1 -10 4 -10 6 0 11 5 11 10 0 6 -2 10 -4 10 -3 0
-8 -4 -11 -10z"/>
<path d="M8306 2897 c3 -10 9 -15 12 -12 3 3 0 11 -7 18 -10 9 -11 8 -5 -6z"/>
<path d="M8395 2870 c-4 -6 -10 -8 -15 -5 -15 9 -34 -35 -20 -49 8 -8 9 -6 4
9 -7 17 -6 18 8 7 18 -14 35 1 35 31 0 20 -3 21 -12 7z m-3 -24 c7 4 8 2 4 -5
-9 -13 -26 -5 -25 12 0 9 2 8 6 -1 2 -6 10 -9 15 -6z"/>
<path d="M4670 2569 c0 -5 5 -7 10 -4 6 3 10 8 10 11 0 2 -4 4 -10 4 -5 0 -10
-5 -10 -11z"/>
</g>
</svg>
